<?xml version="1.0" standalone="no"?> <!DOCTYPE svg PUBLIC "-//W3C//DTD SVG 1.0//EN" "http://www.w3.org/TR/2001/REC-SVG-20010904/DTD/svg10.dtd" > <svg xmlns="http://www.w3.org/2000/svg" width="100%" height="100%">
<defs >
<font horiz-adv-x="454" ><font-face
    font-family=""
    units-per-em="1000"
    panose-1="0 0 0 0 0 0 0 0 0 0"
    ascent="730"
    descent="-270"
    alphabetic="0" />
<missing-glyph horiz-adv-x="167" />
<glyph unicode=" " glyph-name="space" horiz-adv-x="167" />
<glyph unicode="!" glyph-name="exclam" horiz-adv-x="231" d="M108 202H91Q94 252 99 315T109 441T118 563T125 662H269Q254 621 234 563T192 441T148 315T108 202ZM73 124Q103 124 122 105T142 56Q142 27 123 8T73 -12Q43 -12 24 7T5 56Q5 85 24 104T73 124Z" />
<glyph unicode="&quot;" glyph-name="quotedbl" horiz-adv-x="331" d="M314 693Q337 693 349 678T360 640Q360 624 355 607T340 566T315 511T279 436H266Q264 502 262 552T260 627Q261 658 275 675T314 693ZM168 693Q191 693 203 678T214 640Q214 624 209 607T194
566T169 511T133 436H120Q118 502 116 552T114 627Q115 658 129 675T168 693Z" />
<glyph unicode="#" glyph-name="numbersign" horiz-adv-x="436" d="M362 423L309 284H384L375 237H291L201 0H148L238 237H158L69 0H15L105 237H28L37 284H123L176 423H100L109 470H194L267 662H320L247 470H327L400 662H453L380 470H458L449 423H362ZM176 284H256L309
423H229L176 284Z" />
<glyph unicode="$" glyph-name="dollar" d="M313 672L332 742H379L359 668Q388 666 411 662T446 655L419 498H411Q391 537 375 561T341 598L291 408L301 394Q331 353 352 322T386 265T406 216T413 171Q413 132 397 99T352 42T284 4T198 -10Q193 -10 189 -10T180
-9L157 -96H110L134 -4Q92 4 62 17T16 41Q17 56 20 80T27 132T37 190T48 247H56Q76 167 101 126T153 68L212 290L206 298Q174 340 153 371T120 426T102 471T97 513Q97 549 112 578T155 629T218 661T297 672H313ZM293 137Q293 160 282 183T247 242L197 54H201Q240
54 266 76T293 137ZM214 551Q214 530 224 508T256 456L299 617Q295 617 292 617T285 618Q255 618 235 600T214 551Z" />
<glyph unicode="%" glyph-name="percent" horiz-adv-x="688" d="M595 156Q595 197 574 222T520 247Q499 247 483 238T454 213T436 177T429 133Q429 92 450 67T503 42Q524 42 541 51T570 76T588 112T595 156ZM520 297Q580 297 617 260T655 156Q655 123 644 94T613
42T564 6T503 -8Q443 -8 406 28T368 132Q368 165 379 194T410 247T459 283T520 297ZM125 506Q125 465 146 440T200 415Q221 415 238 424T267 449T285 485T292 529Q292 570 271 595T217 620Q196 620 179 611T150 586T132 550T125 506ZM217 670Q277 670 314 634T352
529Q352 497 341 467T310 415T261 379T200 365Q140 365 103 402T65 506Q65 538 76 568T107 620T156 656T217 670ZM590 662H659L136 0H68L590 662Z" />
<glyph unicode="&amp;" glyph-name="ampersand" horiz-adv-x="634" d="M673 426Q640 408 616 388T571 342T528 282T478 203L455 166Q497 103 535 59T619 -16L618 -22Q528 -23 476 -7T393 40L374 60Q339 25 297 5T198 -15Q156 -15 122 -3T65 32T28 86T15 154Q15
194 30 227T70 287T126 334T191 369Q175 405 166 437T156 497Q156 535 169 564T205 614T259 645T327 656Q383 656 419 628T455 554Q455 526 443 504T411 463T366 430T317 403Q331 377 347 348T382 285Q393 266 403 249T424 214Q426 218 428 221T432 228Q457 271
476 309T507 372L455 426L456 432H674L673 426ZM270 218Q253 249 237 278T207 335Q183 310 163 273T142 181Q142 130 169 98T242 65Q268 65 292 75T339 106Q322 129 305 157T270 218ZM269 550Q269 525 277 496T303 432Q325 452 343 481T362 548Q362 578 350 593T317
608Q299 608 284 594T269 550Z" />
<glyph unicode="&apos;" glyph-name="quotesingle" horiz-adv-x="185" d="M168 693Q191 693 203 678T214 640Q214 624 209 607T194 566T169 511T133 436H120Q118 502 116 552T114 627Q115 658 129 675T168 693Z" />
<glyph unicode="(" glyph-name="parenleft" horiz-adv-x="328" d="M402 752L414 746Q373 689 333 625T260 484T207 316T187 113Q187 16 199 -56T226 -180L213 -184Q196 -159 175 -124T134 -43T101 56T87 176Q87 279 116 366T192 526T293 654T402 752Z" />
<glyph unicode=")" glyph-name="parenright" horiz-adv-x="328" d="M-60 -184L-72 -178Q-31 -121 9 -57T82 84T135 252T155 455Q155 552 143 624T116 748L129 752Q146 727 167 692T208 611T241 512T255 392Q255 289 226 202T150 42T49 -86T-60 -184Z" />
<glyph unicode="*" glyph-name="asterisk" horiz-adv-x="334" d="M212 471L121 399L116 402L162 506L62 547V554L173 560L155 671L161 674L230 582L321 655L326 650L273 547L377 506V500L268 490L283 384L278 382L212 471Z" />
<glyph unicode="+" glyph-name="plus" horiz-adv-x="419" d="M39 273H189L220 443H278L247 273H396L387 222H237L206 48H148L179 222H30L39 273Z" />
<glyph unicode="," glyph-name="comma" horiz-adv-x="202" d="M76 17Q52 16 32 31T11 77Q11 105 30 123T78 141Q113 141 132 116T152 55Q152 23 139 -6T104 -59T53 -101T-7 -133L-21 -127Q14 -89 39 -53T76 17Z" />
<glyph unicode="-" glyph-name="hyphen" horiz-adv-x="262" d="M59 295H234L214 197H38L59 295Z" />
<glyph unicode="." glyph-name="period" horiz-adv-x="193" d="M75 123Q105 123 124 104T143 55Q143 26 124 7T75 -12Q44 -12 25 7T6 55Q6 84 25 103T75 123Z" />
<glyph unicode="/" glyph-name="slash" horiz-adv-x="339" d="M401 741L-35 -236L-83 -217L353 760L401 741Z" />
<glyph unicode="0" glyph-name="zero" horiz-adv-x="466" d="M358 233Q358 263 350 289T327 333T292 363T246 374Q215 374 190 360T146 322T119 267T109 201Q109 169 118 143T142 98T178 69T223 58Q252 58 276 72T319 110T347 166T358 233ZM247 444Q289 444 325
429T386 387T426 323T441 240Q441 190 425 145T380 64T309 9T219 -12Q178 -12 143 2T82 42T41 107T26 196Q26 245 42 290T88 369T158 423T247 444Z" />
<glyph unicode="1" glyph-name="one" horiz-adv-x="260" d="M97 379L54 426L55 432H278V426L218 379L159 53L200 6L199 0H-24L-23 6L37 53L97 379Z" />
<glyph unicode="2" glyph-name="two" horiz-adv-x="381" d="M57 346Q64 358 76 375T106 407T149 433T208 444Q266 444 296 414T326 340Q326 309 311 281T268 223T202 164T117 101H362L299 0H-30L-28 6Q34 71 75 117T142 198T178 258T189 308Q189 333 174 349T130
365Q108 365 92 357T65 339L57 346Z" />
<glyph unicode="3" glyph-name="three" horiz-adv-x="319" d="M14 120Q59 157 89 185T136 236T160 276T167 311Q167 337 154 351T118 366Q98 366 84 358T60 341L50 347Q58 362 69 379T97 410T136 433T187 443Q243 443 269 415T295 349Q295 302 258 264T143 179Q199
173 233 141T268 53Q268 4 243 -41T171 -125T59 -197T-85 -257L-90 -246Q-42 -212 -3 -177T65 -105T108 -33T124 39Q124 71 107 92T51 114Q42 114 33 113T19 109L14 120Z" />
<glyph unicode="4" glyph-name="four" horiz-adv-x="440" d="M390 442L325 87H403L387 0H309L278 -172L154 -221L194 0H-34L-33 7L333 442H390ZM209 87L241 264L93 87H209Z" />
<glyph unicode="5" glyph-name="five" horiz-adv-x="297" d="M309 432L251 331H126Q126 330 123 324T119 318Q133 300 152 275T189 221T219 158T231 90Q231 40 207 -4T141 -88T41 -158T-84 -214L-89 -205Q-54 -178 -20 -147T42 -81T87 -13T104 53Q104 76 97 99T80
144T59 183T38 214Q44 230 58 260T90 324T123 388T150 432H309Z" />
<glyph unicode="6" glyph-name="six" horiz-adv-x="456" d="M207 -11Q178 -11 148 1T93 39T53 105T37 202Q37 265 57 322T111 430T191 522T287 598T391 654T495 691L500 682Q438 646 378 594T269 477T190 335T160 172Q160 104 176 71T213 38Q226 38 241 49T270
80T293 128T302 192Q302 237 284 261T233 285Q222 285 214 284T201 280L196 286Q202 293 212 304T237 325T271 342T313 349Q365 349 396 313T428 213Q428 164 408 123T356 52T285 6T207 -11Z" />
<glyph unicode="7" glyph-name="seven" horiz-adv-x="394" d="M90 432H411L410 426L61 -248L9 -231L297 329H32L90 432Z" />
<glyph unicode="8" glyph-name="eight" horiz-adv-x="392" d="M266 670Q298 670 324 661T369 637T398 602T409 559Q409 532 398 508T367 461T324 417T272 377Q290 344 306 316T333 263T351 215T358 168Q358 135 344 103T305 46T245 6T169 -10Q134 -10 105 -1T54
26T21 67T9 118Q9 146 21 172T55 224T104 273T164 323Q144 358 131 384T108 433T95 474T91 513Q91 544 105 572T143 623T199 657T266 670ZM245 129Q245 146 241 162T230 198T211 239T183 290Q155 257 136 215T117 124Q117 86 133 63T173 39Q189 39 202 47T224 67T239
96T245 129ZM202 553Q202 526 215 492T257 406Q279 434 296 472T313 553Q313 585 299 605T261 625Q239 625 221 606T202 553Z" />
<glyph unicode="9" glyph-name="nine" horiz-adv-x="456" d="M146 84Q121 84 100 94T64 123T40 166T31 222Q31 271 50 311T101 381T171 427T249 444Q283 444 314 430T370 389T408 321T422 230Q422 166 402 109T349 1T270 -91T175 -166T71 -222T-31 -258L-37 -249Q24
-212 84 -160T191 -44T268 97T298 261Q298 330 282 362T246 394Q234 394 219 383T190 352T167 304T157 241Q157 197 175 172T226 147Q236 147 244 148T258 152L262 146Q257 139 247 129T222 108T188 91T146 84Z" />
<glyph unicode=":" glyph-name="colon" horiz-adv-x="213" d="M137 443Q167 443 186 424T205 375Q205 346 186 327T137 308Q106 308 87 327T68 375Q68 404 87 423T137 443ZM76 123Q106 123 125 104T144 55Q144 26 125 7T76 -12Q45 -12 26 7T7 55Q7 84 26 103T76 123Z" />
<glyph unicode=";" glyph-name="semicolon" horiz-adv-x="213" d="M77 17Q53 16 33 31T12 77Q12 105 31 123T79 141Q114 141 133 116T153 55Q153 23 140 -6T105 -59T54 -101T-6 -133L-20 -127Q15 -89 40 -53T77 17ZM138 443Q168 443 187 424T206 375Q206 346 187
327T138 308Q107 308 88 327T69 375Q69 404 88 423T138 443Z" />
<glyph unicode="&lt;" glyph-name="less" horiz-adv-x="385" d="M33 220L42 272L374 411L363 353L95 244L322 134L313 82L33 220Z" />
<glyph unicode="=" glyph-name="equal" horiz-adv-x="410" d="M32 164L41 214H363L354 164H32ZM50 269L59 319H382L373 269H50Z" />
<glyph unicode="&gt;" glyph-name="greater" horiz-adv-x="385" d="M360 273L350 221L19 82L29 140L298 249L70 359L80 411L360 273Z" />
<glyph unicode="?" glyph-name="question" horiz-adv-x="356" d="M305 405Q279 385 253 367T206 333Q183 316 173 303T157 269L137 202H121Q118 214 115 232T110 269T105 305T103 333Q103 353 111 368T142 405Q160 422 182 442T225 482Q246 502 259 523T272 568Q272
591 259 605T228 619Q211 619 192 608T153 581T118 548T90 517H82L111 662Q114 663 124 664T148 668T180 671T216 673Q262 673 295 663T348 635T378 594T388 547Q388 470 305 405ZM116 123Q146 123 165 104T185 55Q185 26 166 7T116 -12Q86 -12 67 7T48 55Q48 84
67 103T116 123Z" />
<glyph unicode="@" glyph-name="at" horiz-adv-x="857" d="M565 57Q600 68 634 91T697 150T742 235T759 348Q759 395 746 435T705 505T630 552T516 569Q429 569 356 531T231 431T150 290T121 126Q121 60 140 9T195 -78T280 -131T391 -150Q445 -150 490 -140T572
-113T640 -76T694 -36L707 -51Q689 -72 658 -98T584 -147T486 -185T363 -201Q289 -201 228 -180T123 -118T55 -20T31 112Q31 214 70 305T178 465T338 574T534 615Q606 615 663 597T761 545T824 466T846 363Q846 276 811 209T718 96T586 29T433 10L460 137Q444 114
424 92T383 51T341 22T302 11Q290 11 278 18T255 40T238 74T231 119Q231 177 254 228T316 317T407 378T517 403L647 446L565 57ZM365 98Q377 98 407 122T472 192L509 359Q476 357 447 335T397 280T364 207T352 129Q352 115 355 107T365 98Z" />
<glyph unicode="A" glyph-name="A" horiz-adv-x="584" d="M159 6L157 0H-39L-37 6L34 65L359 668H388L500 65L545 6L543 0H279L281 6L359 65L336 197H170L102 70L159 6ZM199 251H326L295 430L199 251Z" />
<glyph unicode="B" glyph-name="B" horiz-adv-x="549" d="M528 213Q528 165 509 126T456 59T374 16T271 0H-17L-16 6L60 65L149 597L93 656L94 662H320Q366 662 404 654T470 629T513 587T528 529Q528 499 516 474T484 427T439 391T389 367Q415 360 440 348T484
316T516 272T528 213ZM241 335L198 67Q203 63 221 57T261 51Q281 51 303 61T343 90T373 139T385 208Q385 271 353 303T267 335H241ZM289 611L250 382H323Q332 382 345 392T370 419T390 461T399 514Q399 565 375 588T308 611H289Z" />
<glyph unicode="C" glyph-name="C" horiz-adv-x="608" d="M347 -10Q286 -10 231 8T135 62T69 151T44 274Q44 358 77 431T166 557T295 641T449 672Q507 672 555 664T625 648L598 490H591Q553 548 512 580T434 613Q396 613 354 589T276 520T218 415T195 278Q195
224 209 182T245 110T296 66T353 50Q385 50 415 62T470 92T514 129T545 161H553L528 13Q521 11 505 7T465 -1T411 -7T347 -10Z" />
<glyph unicode="D" glyph-name="D" horiz-adv-x="670" d="M328 662Q398 662 460 645T568 592T640 503T667 377Q667 310 643 243T572 121T454 34T293 0H-16L-15 6L60 64L150 597L94 656L95 662H328ZM291 610L199 68Q210 63 233 58T290 52Q338 52 380 75T453 140T501
239T519 363Q519 429 503 476T459 553T394 596T314 610H291Z" />
<glyph unicode="E" glyph-name="E" horiz-adv-x="496" d="M-16 0L-15 6L60 65L149 597L93 656L94 662H513L489 514H482L423 606H289L250 376H389L458 448H464L429 247H423L380 321H240L196 57H345L445 174H452L422 0H-16Z" />
<glyph unicode="F" glyph-name="F" horiz-adv-x="476" d="M457 449H463L428 248H422L380 322H239L196 65L275 6L274 0H-18L-17 6L59 65L148 597L92 656L93 662H511L487 512H481L422 606H288L249 377H388L457 449Z" />
<glyph unicode="G" glyph-name="G" horiz-adv-x="655" d="M551 24Q536 21 515 15T469 4T415 -6T358 -10Q290 -10 233 9T133 65T68 154T44 271Q44 358 78 432T169 559T299 642T451 672Q510 672 559 664T633 647L605 490H599Q512 613 435 613Q395 613 353 588T275
519T218 413T195 279Q195 226 208 184T245 112T300 68T369 52Q387 52 401 54T428 60L465 278L400 337L401 344H662L661 337L593 273L551 24V24Z" />
<glyph unicode="H" glyph-name="H" horiz-adv-x="705" d="M249 365H505L544 597L488 656L489 662H759L758 656L682 597L593 65L648 6L647 0H378L379 6L455 65L495 308H240L199 65L254 6L253 0H-16L-15 6L60 65L150 597L93 656L95 662H365L364 656L288 597L249 365Z" />
<glyph unicode="I" glyph-name="I" horiz-adv-x="311" d="M-16 0L-15 6L60 65L150 597L94 656L95 662H365L364 656L288 597L199 65L253 6L252 0H-16Z" />
<glyph unicode="J" glyph-name="J" horiz-adv-x="304" d="M202 103Q197 71 180 32T130 -50T51 -135T-60 -217L-69 -209Q-48 -181 -28 -147T11 -69T45 31T73 158L147 597L90 656L91 662H362L361 656L284 597L202 103Z" />
<glyph unicode="K" glyph-name="K" horiz-adv-x="641" d="M-16 0V6L60 65L150 597L94 656L95 662H366L365 656L288 597L199 65L254 6L253 0H-16ZM326 0L327 6L404 65L284 324H255L499 597L444 656L445 662H673L672 656L577 598L399 402L552 65L606 6L605 0H326Z" />
<glyph unicode="L" glyph-name="L" horiz-adv-x="525" d="M197 57H352L484 206H490L455 0H-17L-16 6L60 65L150 597L94 656L95 662H364L363 656L286 597L197 57Z" />
<glyph unicode="M" glyph-name="M" horiz-adv-x="776" d="M446 0L448 6L526 66L594 472L333 56H307L190 467L123 66L179 6L178 0H-19L-18 6L60 66L145 570Q131 605 120 625T103 656L104 662H271L389 253L643 662H823L822 656Q817 652 809 645T791 628T771 609T751
590L663 66L720 6L719 0H446Z" />
<glyph unicode="N" glyph-name="N" horiz-adv-x="670" d="M495 0L198 485L128 66L209 6L208 0H-19L-18 6L60 66L144 569Q123 602 110 621T86 656L87 662H252L520 218L584 596L509 656L510 662H731L730 656L651 596L551 0H495Z" />
<glyph unicode="O" glyph-name="O" horiz-adv-x="686" d="M408 614Q371 614 334 588T266 516T216 404T197 261Q197 210 208 171T236 105T276 65T322 51Q359 51 396 77T464 150T512 262T531 406Q531 456 522 495T495 560T456 600T408 614ZM48 269Q48 356 78 430T159
557T275 641T409 672Q464 672 513 653T600 597T658 511T680 398Q680 310 650 235T571 106T456 21T322 -10Q264 -10 214 9T127 65T69 153T48 269Z" />
<glyph unicode="P" glyph-name="P" horiz-adv-x="520" d="M548 499Q548 447 526 406T464 336T374 290T264 268L266 281Q331 311 372 365T413 488Q413 545 383 578T300 611H289L199 65L269 6L268 0H-16L-15 6L61 65L151 597L95 656L96 662H323Q371 662 412 652T483
622T530 571T548 499Z" />
<glyph unicode="Q" glyph-name="Q" horiz-adv-x="686" d="M681 399Q681 331 661 270T605 159T519 70T408 11Q495 -38 559 -68T677 -116T778 -140T881 -146Q897 -146 914 -145T934 -143L935 -152Q921 -163 896 -175T839 -199T769 -217T692 -224Q660 -224 624 -215T535
-181T407 -112T222 4Q189 25 158 49T102 105T63 177T48 271Q48 355 78 428T157 555T271 640T405 672Q463 672 513 653T601 598T660 512T681 399ZM198 261Q198 210 209 171T238 106T278 66T322 52Q363 52 400 79T467 155T513 267T531 406Q531 459 521 498T493 562T454
600T407 613Q368 613 331 586T264 511T216 399T198 261Z" />
<glyph unicode="R" glyph-name="R" horiz-adv-x="593" d="M-16 6L60 65L150 597L94 656L95 662H335Q378 662 417 654T485 629T532 585T549 520Q549 487 537 460T506 411T462 373T412 347L467 191Q495 112 522 65T570 -7L569 -13Q501 -13 462 -2T399 29T363 78T338
145Q333 161 327 182T314 227T301 273T288 317H240L198 65L258 6L257 0H-16V6ZM288 611L248 367H340Q348 367 361 376T387 404T409 447T418 505Q418 561 388 586T319 611H288Z" />
<glyph unicode="S" glyph-name="S" horiz-adv-x="438" d="M295 672Q339 672 379 666T440 654L412 498H404Q369 566 340 591T285 617Q263 617 244 600T224 552Q224 523 243 489T302 396Q331 352 350 320T380 262T396 215T401 175Q401 134 385 100T342 42T276 4T192
-10Q159 -10 131 -5T79 9T39 27T12 43Q13 58 16 82T23 133T33 190T45 247H53Q73 145 112 99T195 52Q225 52 248 76T271 137Q271 153 268 168T256 202T233 244T197 299Q167 342 148 373T119 428T104 472T100 513Q100 552 116 581T160 631T222 661T295 672Z" />
<glyph unicode="T" glyph-name="T" horiz-adv-x="607" d="M649 662L622 497H617L550 607H439L348 65L414 6L413 0H120L121 6L209 65L300 607H193L86 497H81L109 662H649Z" />
<glyph unicode="U" glyph-name="U" horiz-adv-x="656" d="M579 208Q573 171 556 132T509 62T433 10T324 -10Q256 -10 206 9T125 60T83 135T79 229L140 597L84 656L85 662H366L365 656L278 597L216 223Q211 192 217 164T240 115T286 81T356 68Q392 68 419 80T466
112T498 160T515 217L578 597L513 656L514 662H721L720 656L644 597L579 208Z" />
<glyph unicode="V" glyph-name="V" horiz-adv-x="586" d="M454 656L455 662H656L655 656L585 597L263 -6H234L126 597L79 656L80 662H342L341 656L264 597L324 232L514 597L454 656Z" />
<glyph unicode="W" glyph-name="W" horiz-adv-x="883" d="M126 597L79 656L80 662H325L324 656L265 597L346 211L451 398L404 597L357 656L358 662H583L582 656L532 597L560 470L626 597L596 656L597 662H744L743 656L687 597L577 394L619 211L815 597L776 656L777
662H953L952 656L884 597L577 -6H547L470 318L289 -6H259L126 597Z" />
<glyph unicode="X" glyph-name="X" horiz-adv-x="629" d="M-27 0L-26 6L63 65L272 321L151 597L96 656L97 662H380L379 656L300 597L374 421L506 593L451 656L452 662H676L675 656L586 597L400 359L525 65L581 6L580 0H304L305 6L384 65L300 257L146 69L205 6L204 0H-27Z" />
<glyph unicode="Y" glyph-name="Y" horiz-adv-x="588" d="M456 656L457 662H656L655 656L586 597L389 331L345 68L401 6L400 0H129L130 6L207 68L248 316L127 597L78 656L79 662H351L350 656L273 597L361 387L511 593L456 656Z" />
<glyph unicode="Z" glyph-name="Z" horiz-adv-x="562" d="M172 59H403L519 193H526L492 0H-9L-7 9L405 608H211L105 494H99L127 662H590L589 654L172 59Z" />
<glyph unicode="[" glyph-name="bracketleft" horiz-adv-x="282" d="M351 711H271L122 -129H203L196 -163H19L179 744H356L351 711Z" />
<glyph unicode="\" glyph-name="backslash" horiz-adv-x="315" d="M158 754L263 -229L214 -236L108 747L158 754Z" />
<glyph unicode="]" glyph-name="bracketright" horiz-adv-x="282" d="M-47 -130H33L182 710H101L108 744H285L125 -163H-52L-47 -130Z" />
<glyph unicode="^" glyph-name="asciicircum" horiz-adv-x="359" d="M50 283L39 290L262 674H269L352 287L340 284L231 465L50 283Z" />
<glyph unicode="_" glyph-name="underscore" horiz-adv-x="364" d="M-42 -131L-32 -77H302L291 -131H-42Z" />
<glyph unicode="`" glyph-name="grave" horiz-adv-x="400" d="M329 485L184 660L288 713L337 490L329 485Z" />
<glyph unicode="a" glyph-name="a" horiz-adv-x="450" d="M416 23V17Q381 10 332 4T224 -9L251 128Q206 66 162 27T86 -12Q72 -12 58 -4T33 20T15 58T8 110Q8 173 34 227T102 323T199 388T309 415L441 475L362 70L416 23ZM147 79Q161 79 192 109T263 187L301 375Q269
373 239 350T185 290T147 208T132 117Q132 100 136 90T147 79Z" />
<glyph unicode="b" glyph-name="b" horiz-adv-x="451" d="M64 660V666Q76 670 100 677T153 693T213 711T269 726L185 308Q231 370 277 407T358 444Q371 444 385 437T412 414T431 375T439 318Q439 255 418 197T359 93T270 21T161 -6Q125 -6 98 5T53 32T27 68T22
104L125 617L64 660ZM290 352Q275 352 243 323T173 244Q164 202 157 168T145 108Q139 79 135 56Q138 51 145 46T164 40Q189 40 214 64T261 126T295 212T309 305Q309 330 304 341T290 352Z" />
<glyph unicode="c" glyph-name="c" horiz-adv-x="368" d="M279 446Q312 446 341 442T387 432L344 314H338Q329 328 319 342T298 368T278 387T261 395Q244 395 224 376T185 323T154 246T141 150Q141 111 152 91T178 71Q204 71 240 94T314 154L327 145Q310 114 288
86T240 37T185 3T125 -10Q107 -10 88 -1T52 27T24 74T13 141Q13 203 35 258T94 355T179 421T279 446Z" />
<glyph unicode="d" glyph-name="d" horiz-adv-x="465" d="M14 130Q14 197 38 253T104 350T200 413T316 436H328L364 618L302 660V666Q313 670 337 677T390 693T451 711T508 726L377 70L432 23L431 17Q396 10 349 4T242 -9L267 120Q238 83 214 58T171 18T135 -4T106
-11Q92 -11 76 -3T47 22T24 65T14 130ZM316 380Q311 384 301 387T279 391Q256 391 232 371T189 317T157 237T144 140Q144 114 149 96T164 78Q175 78 202 100T276 175L316 380Z" />
<glyph unicode="e" glyph-name="e" horiz-adv-x="382" d="M135 -10Q115 -10 94 -2T54 24T25 70T13 139Q13 203 38 259T104 356T193 420T292 444Q344 444 366 428T388 392Q388 381 379 362T345 321T273 281T151 248Q146 228 144 206T141 160Q141 117 155 95T191
73Q210 73 230 81T268 102T304 129T334 156L347 146Q309 75 254 33T135 -10ZM266 405Q256 405 243 397T215 373T186 334T161 281Q197 291 221 305T259 334T280 362T286 386Q286 405 266 405Z" />
<glyph unicode="f" glyph-name="f" horiz-adv-x="307" d="M57 66Q71 158 82 231T102 371H23V376L61 430H111Q113 446 115 462T121 494Q129 548 151 590T204 660T276 703T360 718Q414 718 449 710T497 697L454 604H450Q420 629 387 648T334 668Q309 668 287 639T253
543Q248 520 243 492T233 430H350L314 371H223L165 24Q157 -16 141 -60T93 -144T14 -210T-103 -245L-120 -153L-117 -151Q-93 -156 -72 -160T-33 -165Q-16 -165 -4 -155T18 -120T37 -49T57 66Z" />
<glyph unicode="g" glyph-name="g" horiz-adv-x="418" d="M35 279Q35 316 52 346T98 399T160 433T229 446Q263 446 296 432H451L425 378H352Q363 367 370 352T377 320Q377 284 360 254T314 201T250 166T181 153Q171 153 166 154Q152 140 147 131T141 115Q141 101
180 80Q224 55 261 37T336 -3Q385 -31 400 -51T415 -92Q415 -125 393 -154T335 -204T254 -237T162 -250Q100 -250 54 -241T-23 -217T-69 -187T-84 -159Q-84 -149 -76 -134T-48 -101T9 -61T103 -15Q102 -15 102 -15T100 -14Q31 26 31 59Q31 69 39 82T62 110T94 137T130
161Q90 174 63 205T35 279ZM268 -98Q240 -83 209 -69T135 -33Q81 -63 60 -89T38 -133Q38 -161 76 -179T175 -198Q211 -198 237 -192T280 -176T305 -156T313 -140Q313 -130 304 -122T268 -98ZM226 406Q214 406 201 395T177 366T158 322T151 267Q151 231 163 213T185
195Q201 195 214 208T237 243T252 289T258 338Q258 373 248 389T226 406Z" />
<glyph unicode="h" glyph-name="h" horiz-adv-x="485" d="M74 660L76 667Q86 670 109 677T162 693T223 710T279 726L190 290Q228 336 259 366T317 413T365 437T404 444Q416 444 427 441T447 429T459 408T459 377Q459 375 455 356T444 306T429 241T413 172T399
111T389 70L444 23V17Q407 10 358 3T248 -9Q251 2 258 32T273 99T291 177T309 252T322 308T327 330Q327 336 327 340T319 345Q312 345 298 336T264 312T223 275T178 230L132 0H9L135 617L74 660Z" />
<glyph unicode="i" glyph-name="i" horiz-adv-x="250" d="M88 340L36 382L38 388Q48 392 70 399T120 415T177 432T231 447L157 70L213 23V17Q175 10 127 3T18 -9L88 340ZM188 637Q217 637 236 618T255 572Q255 545 236 526T188 507Q161 507 142 526T123 572Q123
599 142 618T188 637Z" />
<glyph unicode="j" glyph-name="j" horiz-adv-x="238" d="M145 24Q139 -6 120 -41T73 -112T8 -184T-70 -249L-77 -245Q-49 -190 -20 -120T24 30L87 340L35 382L36 388Q46 392 68 399T118 415T176 432T230 447L145 24ZM186 637Q215 637 234 618T254 572Q254 545
235 527T186 508Q159 508 141 526T122 572Q122 599 140 618T186 637Z" />
<glyph unicode="k" glyph-name="k" horiz-adv-x="430" d="M134 618L73 660L75 667Q85 670 108 677T161 693T222 710T277 726L133 0H9L134 618ZM188 204Q227 242 249 268T282 311T296 339T299 355Q299 369 290 380T276 397L279 403L396 446Q403 438 412 422T422
389Q422 377 418 365T399 337T359 300T288 247Q322 176 343 133T377 63T399 23T414 -2L413 -7Q376 -6 351 -5T307 2T275 19T249 53T222 110T187 197L188 204Z" />
<glyph unicode="l" glyph-name="l" horiz-adv-x="246" d="M137 617L77 660L78 667Q88 671 112 678T165 693T225 710T281 726L151 70L206 23V17Q132 3 11 -9L137 617Z" />
<glyph unicode="m" glyph-name="m" horiz-adv-x="704" d="M18 0L87 340L36 382V388Q47 392 69 399T119 415T176 432T231 447L199 289Q234 335 263 365T316 412T361 437T399 444Q422 444 438 430T447 377Q447 375 442 351T429 289Q464 335 493 365T546 412T590
437T627 444Q639 444 649 441T667 430T678 409T678 377Q678 375 674 356T663 306T649 241T633 172T619 111T610 70L665 23V17Q629 10 579 4T468 -9Q471 5 478 35T494 103T512 179T528 250T541 303T546 325Q547 330 546 334T538 339Q526 339 495 312T415 227L365
0H244Q248 14 254 44T269 109T285 183T301 252T312 304T317 325Q317 330 317 334T309 339Q297 339 266 311T186 226L141 0H18Z" />
<glyph unicode="n" glyph-name="n" horiz-adv-x="493" d="M18 0L88 341L36 382V388Q47 392 69 399T119 415T176 432T231 447L199 288Q237 334 268 364T325 412T372 437T412 444Q424 444 435 441T455 430T467 409T467 377Q467 375 463 356T452 306T437 241T422
172T408 111T398 70L452 23V17Q417 10 367 4T257 -9Q260 5 267 36T282 104T300 182T316 255T329 309T334 332Q337 345 327 345Q321 345 307 336T273 311T232 274T187 228L141 0H18Z" />
<glyph unicode="o" glyph-name="o" horiz-adv-x="447" d="M189 -12Q156 -12 125 -1T70 32T31 86T16 160Q16 221 37 273T94 363T173 422T262 444Q293 444 323 433T377 401T415 349T430 278Q430 213 409 160T353 68T275 9T189 -12ZM192 36Q210 36 229 60T265 122T292
208T303 303Q303 354 289 375T259 396Q239 396 219 374T182 315T155 233T145 141Q145 90 158 63T192 36Z" />
<glyph unicode="p" glyph-name="p" horiz-adv-x="465" d="M9 385Q16 389 40 400T107 423L122 497L253 534L234 440H248Q350 440 401 400T452 296Q452 240 428 191T361 102T264 37T147 2L110 -182L200 -236L199 -242H-74L-73 -236L-12 -186L100 387Q72 383 51 379T14
370L9 385ZM323 290Q323 332 299 359T225 392L159 58Q165 54 173 54Q194 54 220 73T269 124T307 200T323 290Z" />
<glyph unicode="q" glyph-name="q" horiz-adv-x="461" d="M367 -236L366 -242H121L122 -236L212 -179L271 132Q251 103 230 77T187 32T147 1T110 -11Q94 -11 77 -3T46 22T23 65T14 127Q14 193 39 250T107 348T203 413T317 437Q328 437 339 436T359 433L461 473L331
-185L367 -236ZM163 76Q178 76 210 108T283 193L320 388Q310 390 300 390Q268 390 240 369T190 313T157 230T144 131Q144 105 149 91T163 76Z" />
<glyph unicode="r" glyph-name="r" horiz-adv-x="366" d="M18 0L87 340L35 382L36 388Q46 392 68 399T119 415T176 432T231 447L199 289Q245 369 276 407T324 446Q340 446 360 439T389 428L337 292Q332 294 325 298T310 305T294 311T280 314Q266 314 245 297T188
236L140 0H18Z" />
<glyph unicode="s" glyph-name="s" horiz-adv-x="318" d="M205 445Q221 445 238 443T270 437T297 431T318 426L283 318H278Q246 369 227 384T196 400Q185 400 176 392T167 366Q167 354 172 341T190 308Q204 284 223 255T258 198Q269 177 274 156T279 117Q279 98
271 76T245 34T196 3T123 -10Q89 -10 54 -1T-1 17Q2 47 8 88T22 168H28Q43 129 56 105T82 66T105 46T126 40Q145 40 155 52T166 81Q166 93 162 104T147 133Q136 153 119 182T87 234Q70 262 64 283T58 324Q58 345 67 367T94 406T140 434T205 445Z" />
<glyph unicode="t" glyph-name="t" horiz-adv-x="340" d="M217 369L162 110Q160 101 158 93T156 81Q156 69 167 69Q186 69 216 90T290 153L303 143Q289 118 270 91T226 42T173 5T110 -10Q66 -10 47 7T27 45Q27 54 30 68T37 99L93 369H32V374L245 521L226 430H378L328
369H217Z" />
<glyph unicode="u" glyph-name="u" horiz-adv-x="481" d="M286 152Q226 69 176 30T81 -10Q49 -10 35 4T21 32Q21 45 29 79L90 341L38 384V390Q49 394 72 401T124 416T183 434T238 449Q235 435 228 404T211 334T192 254T174 178T161 122T156 99Q154 90 164 90Q171
90 185 99T217 126T257 166T299 217L343 432H466L392 69L446 23V17Q373 3 254 -9L286 152Z" />
<glyph unicode="v" glyph-name="v" horiz-adv-x="405" d="M415 388Q415 376 412 363T397 330T364 282T307 212T220 114T96 -20H64Q66 23 67 77T68 185T69 283T69 351L21 392L23 399Q33 402 53 408T96 421T142 435T185 447Q187 417 187 374T186 285T182 197T178
126Q221 188 246 228T283 293T299 331T302 354Q302 368 293 380T278 397V402L389 442Q397 434 406 420T415 388Z" />
<glyph unicode="w" glyph-name="w" horiz-adv-x="570" d="M356 436Q365 379 371 302T379 150Q411 206 429 241T456 297T467 330T469 352Q469 369 460 380T443 398V403L558 441Q566 433 573 420T581 390Q581 372 571 347T530 278T444 163T301 -19H267Q267 6 267
36T268 99T268 162T268 222Q231 160 187 98T97 -19H63Q65 25 66 82T68 194T69 292T69 351L22 392L23 399Q32 402 52 408T95 421T143 435T187 447Q187 419 187 382T185 305T183 226T179 155Q196 187 212 218T246 284T281 355T321 436H356V436Z" />
<glyph unicode="x" glyph-name="x" horiz-adv-x="413" d="M312 76L371 34L370 27Q358 24 338 19T296 8T252 -3T216 -11L168 152Q123 65 93 27T38 -11Q21 -11 3 -6T-21 2L9 118L12 121Q18 118 34 112T64 105Q81 105 103 126T157 189L108 358L54 399L55 405Q63 408
82 413T123 424T167 437T206 447L249 295Q294 373 324 409T382 445Q393 445 410 441T433 435L403 324L399 321Q392 324 381 327T360 331Q334 331 308 312T258 266L312 76Z" />
<glyph unicode="y" glyph-name="y" horiz-adv-x="398" d="M296 350Q296 364 287 376T269 396V401L381 440Q392 430 400 415T409 385Q409 365 397 340T359 276T292 183T194 51Q163 8 135 -36T84 -119T43 -193T17 -250L-118 -234V-228Q-57 -181 -3 -125T95 -14Q92
27 89 78T81 180T72 276T64 351L15 393L16 400Q26 403 44 409T85 421T130 435T171 447Q175 422 178 383T185 300T191 210T196 127Q229 185 249 224T279 288T293 327T296 350Z" />
<glyph unicode="z" glyph-name="z" horiz-adv-x="365" d="M-16 14L253 344H204Q138 344 101 340T47 334L43 338L113 442L386 432L383 418L110 92H157Q191 92 217 93T265 97T305 102T340 109L343 105L263 -8L-18 0L-16 14Z" />
<glyph unicode="{" glyph-name="braceleft" horiz-adv-x="292" d="M219 198Q219 168 202 134T165 65T128 -4T111 -69Q111 -130 186 -176L175 -182Q141 -172 112 -158T61 -127T27 -89T14 -44Q14 -16 34 18T78 87T122 155T142 214Q142 226 139 236T126 255T98 269T49
276L55 304Q93 305 116 311T152 328T169 352T174 381Q174 400 166 427T147 483T128 540T119 588Q119 646 171 689T339 752L346 744Q309 728 285 710T247 671T227 631T221 592Q221 573 226 549T239 499T251 449T257 405Q257 360 221 328T123 288Q171 279 195 255T219
198Z" />
<glyph unicode="|" glyph-name="bar" horiz-adv-x="260" d="M103 750H158V-228H103V750Z" />
<glyph unicode="}" glyph-name="braceright" horiz-adv-x="292" d="M95 372Q95 402 112 436T149 505T186 574T203 639Q203 700 128 746L139 752Q173 742 202 728T253 697T287 659T300 614Q300 586 280 552T236 483T192 415T172 356Q172 344 175 334T188 315T216
301T265 294L259 266Q221 265 198 259T162 242T145 218T140 189Q140 170 148 143T167 87T186 30T195 -18Q195 -76 143 -119T-25 -182L-32 -174Q5 -158 29 -140T67 -101T87 -61T93 -22Q93 -3 88 21T75 71T63 121T57 165Q57 210 93 242T191 282Q143 291 119 315T95
372Z" />
<glyph unicode="~" glyph-name="asciitilde" horiz-adv-x="409" d="M309 306Q320 306 332 314T358 335T385 365T412 402L419 399Q397 298 359 251T283 204Q263 204 242 214T199 237T159 259T124 270Q113 270 100 262T74 240T47 209T21 174L14 177Q37 277 75 325T150
374Q169 374 191 364T234 340T275 317T309 306Z" />
<glyph unicode="&#xa1;" glyph-name="exclamdown" horiz-adv-x="232" d="M113 230H130Q127 180 122 117T112 -9T103 -131T96 -230H-48Q-33 -189 -13 -131T29 -9T73 117T113 230ZM148 308Q118 308 99 327T79 376Q79 405 98 424T148 444Q178 444 197 425T216 376Q216
347 197 328T148 308Z" />
<glyph unicode="&#xa2;" glyph-name="cent" horiz-adv-x="384" d="M338 526L314 445Q343 443 366 440T404 432L361 314H356Q342 337 327 358T297 390L202 68Q229 74 263 98T331 154L344 145Q315 93 274 52T180 -4L154 -94H113L138 -10H137Q117 -10 97 -1T59 27T31
74T20 141Q20 200 40 253T95 348T176 415T273 445L297 526H338ZM139 148Q139 91 163 73L258 394Q238 386 217 364T178 309T150 235T139 148Z" />
<glyph unicode="&#xa3;" glyph-name="sterling" horiz-adv-x="508" d="M-26 -13Q-2 34 18 61T54 110T83 152T107 206Q112 223 116 242T124 287H41L49 339H131Q135 366 138 397T145 466Q150 520 172 559T226 623T296 661T373 673Q416 673 453 667T502 656L476 506H469Q440
554 412 585T360 617Q339 617 322 597T297 539Q289 494 280 441T261 339H392L383 287H248L243 268Q229 218 198 184T127 124Q142 130 157 133T190 137Q212 137 231 132T270 122T306 111T342 106Q381 106 415 132T473 192L480 190Q460 90 415 40T315 -11Q291 -11
266 -1T215 20T164 42T113 52Q78 52 45 30T-20 -18L-26 -13Z" />
<glyph unicode="&#xa5;" glyph-name="yen" horiz-adv-x="569" d="M498 221H358L333 68L390 6L389 0H118L119 6L196 68L221 221H81L90 270H229L238 324H97L106 373H224L131 597L82 656L83 662H355L354 656L277 597L354 406L489 593L434 656L435 662H634L633 656L564
597L400 373H524L515 324H375L366 270H507L498 221Z" />
<glyph unicode="&#xa6;" glyph-name="brokenbar" horiz-adv-x="260" d="M103 750H158V315H103V750ZM103 218H158V-228H103V218Z" />
<glyph unicode="&#xa7;" glyph-name="section" horiz-adv-x="423" d="M34 262Q34 291 45 314T75 356T116 389T161 413Q148 438 142 460T136 507Q136 541 150 571T189 624T247 660T318 673Q333 673 348 672T378 668T402 663T418 660L390 528H384Q358 578 338 600T294
623Q273 623 255 605T237 558Q237 543 241 528T255 494T280 452T317 395Q358 333 380 290T402 207Q402 177 390 153T358 112T317 82T276 62Q302 10 302 -37Q302 -76 287 -110T244 -171T182 -213T108 -228Q57 -228 23 -216T-21 -197Q-20 -180 -16 -156T-8 -105T1
-56T9 -17H17Q23 -47 31 -75T52 -124T81 -158T118 -171Q150 -171 174 -148T198 -86Q198 -69 193 -53T178 -16T152 28T114 84Q92 115 77 139T53 185T39 224T34 262ZM204 179Q221 154 235 132T261 90Q272 100 284 116T297 157Q297 169 294 181T284 210T266 246T236
293Q217 319 202 342T176 385Q160 376 147 361T134 322Q134 310 137 297T149 268T170 230T204 179Z" />
<glyph unicode="&#xa8;" glyph-name="dieresis" horiz-adv-x="400" d="M354 629Q380 629 398 612T417 568Q417 543 399 525T354 507Q328 507 311 525T294 568Q294 594 311 611T354 629ZM183 629Q210 629 227 612T245 568Q245 543 228 525T183 507Q158 507 140
525T122 568Q122 594 140 611T183 629Z" />
<glyph unicode="&#xa9;" glyph-name="copyright" horiz-adv-x="754" d="M418 156Q373 156 335 168T268 204T223 261T207 336Q207 374 222 407T265 466T332 505T422 520Q440 520 457 518T490 514T516 509T533 505V393H526Q514 408 500 422T470 449T439 468T409
475Q394 475 379 466T351 441T330 400T322 345Q322 310 331 284T354 239T387 212T425 202Q442 202 458 209T487 228T512 253T533 280H540V182Q527 176 495 166T418 156ZM396 628Q334 628 283 605T193 541T134 447T113 332Q113 271 135 218T196 124T285 60T396 36Q456
36 508 59T598 122T657 216T679 332Q679 392 657 445T597 539T507 604T396 628ZM396 674Q467 674 529 647T637 574T709 465T736 332Q736 260 710 198T638 89T530 17T396 -10Q323 -10 261 16T154 89T82 197T56 332Q56 404 82 466T153 574T261 647T396 674Z" />
<glyph unicode="&#xaa;" glyph-name="ordfeminine" horiz-adv-x="336" d="M361 386V382Q349 380 332 378T295 373T254 369T211 364L229 452Q196 409 164 386T112 362Q92 362 75 384T57 446Q57 487 73 524T117 589T186 634T274 653L379 694L324 418L361 386ZM167
432Q175 432 194 449T238 493L265 621Q247 619 228 604T194 566T168 513T158 452Q158 444 160 438T167 432Z" />
<glyph unicode="&#xab;" glyph-name="guillemotleft" horiz-adv-x="420" d="M335 44L204 222L206 228L402 402L409 395L305 216L344 47L335 44ZM170 44L39 222L41 228L236 402L243 395L140 216L178 47L170 44Z" />
<glyph unicode="&#xae;" glyph-name="registered" horiz-adv-x="405" d="M255 685Q294 685 327 671T385 632T424 574T438 504Q438 466 424 433T385 376T327 337T255 322Q216 322 182 336T124 375T85 433T71 504Q71 541 85 574T123 632T182 671T255 685ZM255 652Q224
652 198 641T152 610T122 563T111 504Q111 472 122 445T152 397T198 366T255 355Q286 355 312 366T357 397T388 444T399 504Q399 535 388 562T358 609T312 640T255 652ZM164 421V426L185 445V577L164 597V602H268Q303 602 318 589T334 558Q334 541 324 531T303
515L332 468Q350 438 361 427V422Q356 421 349 421T334 420Q309 420 299 427T281 448L253 501H239V445L263 426V421H164ZM239 578V524H265Q270 524 275 531T280 549Q280 578 250 578H239Z" />
<glyph unicode="&#xaf;" glyph-name="macron" horiz-adv-x="400" d="M161 590H382L367 519H146L161 590Z" />
<glyph unicode="&#xb0;" glyph-name="degree" horiz-adv-x="286" d="M123 543Q123 514 139 496T179 478Q208 478 226 500T245 557Q245 586 229 604T189 622Q160 622 142 600T123 543ZM67 543Q67 568 76 591T101 632T140 659T190 670Q238 670 269 641T301 557Q301
531 292 508T267 467T228 440T179 430Q131 430 99 459T67 543Z" />
<glyph unicode="&#xb2;" glyph-name="twosuperior" horiz-adv-x="248" d="M245 416H39L40 427Q80 467 109 496T156 547T182 587T191 620Q191 640 179 651T148 662Q130 662 117 655T98 643L90 650Q104 679 131 700T200 721Q238 721 261 700T284 642Q284 619 272
598T238 558T189 520T129 482H289L245 416Z" />
<glyph unicode="&#xb3;" glyph-name="threesuperior" horiz-adv-x="217" d="M86 567Q123 586 143 603T164 638Q164 652 156 660T131 668Q118 668 109 664T96 656L88 663Q94 672 102 682T123 701T152 715T190 721Q218 721 234 707T251 669Q251 626 182 602Q214
598 234 580T255 532Q255 512 246 492T214 455T150 425T48 409L45 418Q78 431 100 444T135 470T153 495T158 518Q158 539 144 548T108 558Q97 558 89 556L86 567Z" />
<glyph unicode="&#xb4;" glyph-name="acute" horiz-adv-x="400" d="M167 485L160 490L277 713L362 641L167 485Z" />
<glyph unicode="&#xb6;" glyph-name="paragraph" horiz-adv-x="474" d="M107 0L108 6L184 65L233 355Q197 355 166 365T112 394T76 440T63 503Q63 578 114 620T259 662H344L233 0H107ZM361 65L416 6L415 0H289L401 662H528L527 656L451 597L361 65Z" />
<glyph unicode="&#xb7;" glyph-name="periodcentered" horiz-adv-x="193" d="M105 320Q135 320 154 301T173 252Q173 223 154 204T105 185Q74 185 55 204T36 252Q36 281 55 300T105 320Z" />
<glyph unicode="&#xb8;" glyph-name="cedilla" horiz-adv-x="400" d="M190 0L155 -57Q183 -69 205 -90T227 -145Q227 -164 216 -183T180 -218T117 -244T23 -257L22 -249Q40 -241 59 -231T95 -209T122 -186T133 -162Q133 -154 128 -147T117 -133T103 -123T89 -116L88
-113Q106 -82 121 -57Q134 -36 144 -19T155 0H190Z" />
<glyph unicode="&#xb9;" glyph-name="onesuperior" horiz-adv-x="182" d="M47 416L48 422L88 454L124 648L93 674L94 679Q95 679 115 686T160 702T204 718T226 726L175 454L200 422V416H47Z" />
<glyph unicode="&#xba;" glyph-name="ordmasculine" horiz-adv-x="317" d="M190 400Q202 400 214 415T237 456T255 511T262 571Q262 607 254 621T235 636Q221 636 208 622T185 584T168 531T161 472Q161 438 168 419T190 400ZM187 362Q160 362 137 370T96 394T68
433T58 485Q58 524 73 558T113 618T170 659T237 674Q262 674 285 666T326 642T354 604T365 551Q365 510 350 476T309 416T252 376T187 362Z" />
<glyph unicode="&#xbb;" glyph-name="guillemotright" horiz-adv-x="420" d="M82 402L213 224L211 218L15 44L8 51L112 230L73 399L82 402ZM247 402L378 224L376 218L181 44L174 51L277 230L239 399L247 402Z" />
<glyph unicode="&#xbc;" glyph-name="onequarter" horiz-adv-x="549" d="M49 363L50 369L90 401L126 595L95 621L96 626Q97 626 117 633T162 649T206 665T228 673L177 401L202 369V363H49ZM512 662H576L60 0H-2L512 662ZM474 5L473 0H325L326 5L366 38L373 76H250L252
87L426 301H498L465 123H520L493 76H456L449 38L474 5ZM382 123L401 225L317 123H382Z" />
<glyph unicode="&#xbd;" glyph-name="onehalf" horiz-adv-x="569" d="M513 662H577L61 0H-1L513 662ZM49 363L50 369L90 401L126 595L95 621L96 626Q97 626 117 633T162 649T206 665T228 673L177 401L202 369V363H49ZM479 0H273L274 11Q314 51 343 80T390 131T416
171T425 204Q425 224 413 235T382 246Q364 246 351 239T332 227L324 234Q338 263 365 284T434 305Q472 305 495 284T518 226Q518 203 506 182T472 142T423 104T363 66H523L479 0Z" />
<glyph unicode="&#xbe;" glyph-name="threequarters" horiz-adv-x="542" d="M508 662H572L56 0H-6L508 662ZM81 514Q118 533 138 550T159 585Q159 599 151 607T126 615Q113 615 104 611T91 603L83 610Q89 619 97 629T118 648T147 662T185 668Q213 668 229 654T246
616Q246 573 177 549Q209 545 229 527T250 479Q250 459 241 439T209 402T145 372T43 356L40 365Q73 378 95 391T130 417T148 442T153 465Q153 486 139 495T103 505Q92 505 84 503L81 514ZM468 5L467 0H319L320 5L360 38L367 76H244L246 87L420 301H492L459 123H514L487
76H450L443 38L468 5ZM376 123L395 225L311 123H376Z" />
<glyph unicode="&#xbf;" glyph-name="questiondown" horiz-adv-x="356" d="M51 26Q77 46 103 64T150 98Q173 115 183 128T199 162L219 229H235Q238 217 241 199T246 162T251 126T253 98Q253 78 245 63T214 26Q196 9 174 -11T131 -51Q110 -71 97 -92T84 -137Q84
-160 97 -174T128 -188Q145 -188 164 -177T203 -150T238 -117T266 -86H274L245 -231Q242 -232 232 -233T208 -237T176 -240T140 -242Q94 -242 61 -232T8 -204T-22 -163T-32 -116Q-32 -39 51 26ZM240 308Q210 308 191 327T171 376Q171 405 190 424T240 443Q270 443
289 424T308 376Q308 347 289 328T240 308Z" />
<glyph unicode="&#xc0;" glyph-name="Agrave" horiz-adv-x="584" d="M159 6L157 0H-39L-37 6L34 65L359 668H388L500 65L545 6L543 0H279L281 6L359 65L336 197H170L102 70L159 6ZM199 251H326L295 430L199 251ZM255 745L300 848L486 712L482 704L255 745Z" />
<glyph unicode="&#xc1;" glyph-name="Aacute" horiz-adv-x="584" d="M159 6L157 0H-39L-37 6L34 65L359 668H388L500 65L545 6L543 0H279L281 6L359 65L336 197H170L102 70L159 6ZM199 251H326L295 430L199 251ZM268 704L265 712L469 849L510 744L268 704Z" />
<glyph unicode="&#xc2;" glyph-name="Acircumflex" horiz-adv-x="584" d="M159 6L157 0H-39L-37 6L34 65L359 668H388L500 65L545 6L543 0H279L281 6L359 65L336 197H170L102 70L159 6ZM199 251H326L295 430L199 251ZM400 853L506 700L501 694L388 745L241 694L237
700L400 853Z" />
<glyph unicode="&#xc3;" glyph-name="Atilde" horiz-adv-x="584" d="M159 6L157 0H-39L-37 6L34 65L359 668H388L500 65L545 6L543 0H279L281 6L359 65L336 197H170L102 70L159 6ZM199 251H326L295 430L199 251ZM340 821Q349 821 364 818T396 810T428 802T453
798Q467 798 489 813T529 848L536 845Q519 788 492 752T439 716Q428 716 412 719T380 727T350 735T327 739Q320 739 310 735T289 723T267 707T247 688L241 691Q250 717 262 740T287 782T314 810T340 821Z" />
<glyph unicode="&#xc4;" glyph-name="Adieresis" horiz-adv-x="584" d="M159 6L157 0H-39L-37 6L34 65L359 668H388L500 65L545 6L543 0H279L281 6L359 65L336 197H170L102 70L159 6ZM199 251H326L295 430L199 251ZM474 822Q501 822 519 805T538 761Q538 736 520
718T474 700Q449 700 432 718T415 761Q415 787 432 804T474 822ZM287 822Q313 822 330 805T348 761Q348 736 331 718T287 700Q261 700 244 718T226 761Q226 787 243 804T287 822Z" />
<glyph unicode="&#xc5;" glyph-name="Aring" horiz-adv-x="584" d="M159 6L157 0H-39L-37 6L34 65L359 668H388L500 65L545 6L543 0H279L281 6L359 65L336 197H170L102 70L159 6ZM199 251H326L295 430L199 251ZM335 781Q335 761 348 746T383 731Q403 731 417 745T431
781Q431 801 417 816T383 832Q362 832 349 817T335 781ZM292 781Q292 800 299 816T319 845T348 864T383 871Q401 871 417 864T446 845T466 817T474 781Q474 762 467 746T447 718T418 699T383 692Q365 692 349 698T320 717T300 745T292 781Z" />
<glyph unicode="&#xc6;" glyph-name="AE" horiz-adv-x="787" d="M357 65L393 282H238L99 70L156 6L155 0H-38L-37 6L27 65L376 597L321 656L322 662H804L780 514H774L715 606H586L547 374H680L748 446H755L720 245H714L671 319H537L493 57H636L736 174H743L713
0H281L282 6L357 65ZM402 337L446 598L274 337H402Z" />
<glyph unicode="&#xc7;" glyph-name="Ccedilla" horiz-adv-x="608" d="M347 -10Q322 -10 298 -7L268 -57Q296 -69 318 -90T340 -145Q340 -164 329 -183T293 -218T230 -244T136 -257L135 -249Q153 -241 172 -231T208 -209T235 -186T246 -162Q246 -154 241 -147T230
-133T216 -123T202 -116L201 -113Q219 -82 234 -57Q247 -36 257 -18Q265 -6 267 -2Q249 2 231 8Q176 26 135 62T69 151T44 274Q44 358 77 431T166 557T295 641T449 672Q507 672 555 664T625 648L598 490H591Q553 548 512 580T434 613Q396 613 354 589T276 520T218
415T195 278Q195 224 209 182T245 110T296 66T353 50Q385 50 415 62T470 92T514 129T545 161H553L528 13Q521 11 505 7T465 -1T411 -7T347 -10Z" />
<glyph unicode="&#xc8;" glyph-name="Egrave" horiz-adv-x="496" d="M210 745L255 848L441 712L437 704L210 745ZM-16 0L-15 6L60 65L149 597L93 656L94 662H513L489 514H482L423 606H289L250 376H389L458 448H464L429 247H423L380 321H240L196 57H345L445 174H452L422
0H-16Z" />
<glyph unicode="&#xc9;" glyph-name="Eacute" horiz-adv-x="496" d="M219 704L216 712L420 849L461 744L219 704ZM-16 0L-15 6L60 65L149 597L93 656L94 662H513L489 514H482L423 606H289L250 376H389L458 448H464L429 247H423L380 321H240L196 57H345L445 174H452L422
0H-16Z" />
<glyph unicode="&#xca;" glyph-name="Ecircumflex" horiz-adv-x="496" d="M355 853L461 700L456 694L343 745L196 694L192 700L355 853ZM-16 0L-15 6L60 65L149 597L93 656L94 662H513L489 514H482L423 606H289L250 376H389L458 448H464L429 247H423L380 321H240L196
57H345L445 174H452L422 0H-16Z" />
<glyph unicode="&#xcb;" glyph-name="Edieresis" horiz-adv-x="496" d="M-16 0L-15 6L60 65L149 597L93 656L94 662H513L489 514H482L423 606H289L250 376H389L458 448H464L429 247H423L380 321H240L196 57H345L445 174H452L422 0H-16ZM423 822Q450 822 468 805T487
761Q487 736 469 718T423 700Q398 700 381 718T364 761Q364 787 381 804T423 822ZM236 822Q262 822 279 805T297 761Q297 736 280 718T236 700Q210 700 193 718T175 761Q175 787 192 804T236 822Z" />
<glyph unicode="&#xcc;" glyph-name="Igrave" horiz-adv-x="311" d="M-16 0L-15 6L60 65L150 597L94 656L95 662H365L364 656L288 597L199 65L253 6L252 0H-16ZM375 745L420 848L606 712L602 704L375 745Z" />
<glyph unicode="&#xcd;" glyph-name="Iacute" horiz-adv-x="311" d="M-16 0L-15 6L60 65L150 597L94 656L95 662H365L364 656L288 597L199 65L253 6L252 0H-16ZM381 704L378 712L582 849L623 744L381 704Z" />
<glyph unicode="&#xce;" glyph-name="Icircumflex" horiz-adv-x="311" d="M-16 0L-15 6L60 65L150 597L94 656L95 662H365L364 656L288 597L199 65L253 6L252 0H-16ZM517 853L623 700L618 694L505 745L358 694L354 700L517 853Z" />
<glyph unicode="&#xcf;" glyph-name="Idieresis" horiz-adv-x="311" d="M-16 0L-15 6L60 65L150 597L94 656L95 662H365L364 656L288 597L199 65L253 6L252 0H-16ZM594 822Q621 822 639 805T658 761Q658 736 640 718T594 700Q569 700 552 718T535 761Q535 787
552 804T594 822ZM407 822Q433 822 450 805T468 761Q468 736 451 718T407 700Q381 700 364 718T346 761Q346 787 363 804T407 822Z" />
<glyph unicode="&#xd0;" glyph-name="Eth" horiz-adv-x="670" d="M328 662Q399 662 461 645T568 592T640 503T667 377Q667 310 643 243T572 121T455 34T293 0H-16L-15 6L61 64L102 311H28L37 363H110L150 597L94 656L95 662H328ZM240 311L199 68Q210 63 233 58T290
52Q338 52 380 75T453 140T501 239T519 363Q519 429 503 476T460 553T395 596T315 610H291L249 363H397L388 311H240Z" />
<glyph unicode="&#xd1;" glyph-name="Ntilde" horiz-adv-x="670" d="M403 821Q412 821 427 818T459 810T491 802T516 798Q530 798 552 813T592 848L599 845Q582 788 555 752T502 716Q491 716 475 719T443 727T413 735T390 739Q383 739 373 735T352 723T330 707T310
688L304 691Q313 717 325 740T350 782T377 810T403 821ZM495 0L198 485L128 66L209 6L208 0H-19L-18 6L60 66L144 569Q123 602 110 621T86 656L87 662H252L520 218L584 596L509 656L510 662H731L730 656L651 596L551 0H495Z" />
<glyph unicode="&#xd2;" glyph-name="Ograve" horiz-adv-x="686" d="M305 745L350 848L536 712L532 704L305 745ZM408 614Q371 614 334 588T266 516T216 404T197 261Q197 210 208 171T236 105T276 65T322 51Q359 51 396 77T464 150T512 262T531 406Q531 456 522
495T495 560T456 600T408 614ZM48 269Q48 356 78 430T159 557T275 641T409 672Q464 672 513 653T600 597T658 511T680 398Q680 310 650 235T571 106T456 21T322 -10Q264 -10 214 9T127 65T69 153T48 269Z" />
<glyph unicode="&#xd3;" glyph-name="Oacute" horiz-adv-x="686" d="M309 704L306 712L510 849L551 744L309 704ZM408 614Q371 614 334 588T266 516T216 404T197 261Q197 210 208 171T236 105T276 65T322 51Q359 51 396 77T464 150T512 262T531 406Q531 456 522
495T495 560T456 600T408 614ZM48 269Q48 356 78 430T159 557T275 641T409 672Q464 672 513 653T600 597T658 511T680 398Q680 310 650 235T571 106T456 21T322 -10Q264 -10 214 9T127 65T69 153T48 269Z" />
<glyph unicode="&#xd4;" glyph-name="Ocircumflex" horiz-adv-x="686" d="M447 853L553 700L548 694L435 745L288 694L284 700L447 853ZM408 614Q371 614 334 588T266 516T216 404T197 261Q197 210 208 171T236 105T276 65T322 51Q359 51 396 77T464 150T512 262T531
406Q531 456 522 495T495 560T456 600T408 614ZM48 269Q48 356 78 430T159 557T275 641T409 672Q464 672 513 653T600 597T658 511T680 398Q680 310 650 235T571 106T456 21T322 -10Q264 -10 214 9T127 65T69 153T48 269Z" />
<glyph unicode="&#xd5;" glyph-name="Otilde" horiz-adv-x="686" d="M393 821Q402 821 417 818T449 810T481 802T506 798Q520 798 542 813T582 848L589 845Q572 788 545 752T492 716Q481 716 465 719T433 727T403 735T380 739Q373 739 363 735T342 723T320 707T300
688L294 691Q303 717 315 740T340 782T367 810T393 821ZM408 614Q371 614 334 588T266 516T216 404T197 261Q197 210 208 171T236 105T276 65T322 51Q359 51 396 77T464 150T512 262T531 406Q531 456 522 495T495 560T456 600T408 614ZM48 269Q48 356 78 430T159
557T275 641T409 672Q464 672 513 653T600 597T658 511T680 398Q680 310 650 235T571 106T456 21T322 -10Q264 -10 214 9T127 65T69 153T48 269Z" />
<glyph unicode="&#xd6;" glyph-name="Odieresis" horiz-adv-x="686" d="M525 822Q552 822 570 805T589 761Q589 736 571 718T525 700Q500 700 483 718T466 761Q466 787 483 804T525 822ZM338 822Q364 822 381 805T399 761Q399 736 382 718T338 700Q312 700 295
718T277 761Q277 787 294 804T338 822ZM408 614Q371 614 334 588T266 516T216 404T197 261Q197 210 208 171T236 105T276 65T322 51Q359 51 396 77T464 150T512 262T531 406Q531 456 522 495T495 560T456 600T408 614ZM48 269Q48 356 78 430T159 557T275 641T409
672Q464 672 513 653T600 597T658 511T680 398Q680 310 650 235T571 106T456 21T322 -10Q264 -10 214 9T127 65T69 153T48 269Z" />
<glyph unicode="&#xd7;" glyph-name="multiply" horiz-adv-x="362" d="M154 249L63 388L108 418L192 286L327 418L362 383L220 244L311 102L268 75L182 206L47 75L11 109L154 249Z" />
<glyph unicode="&#xd8;" glyph-name="Oslash" horiz-adv-x="686" d="M48 269Q48 356 78 430T159 557T275 641T409 672Q489 672 555 632L623 723L665 692L596 600Q634 564 657 513T680 398Q680 310 650 235T571 106T456 21T322 -10Q238 -10 172 30L94 -74L53 -43L131
62Q92 98 70 150T48 269ZM408 614Q371 614 334 588T266 516T216 404T197 261Q197 207 209 167L498 555Q463 614 408 614ZM531 406Q531 456 520 498L232 111Q250 82 273 67T322 51Q359 51 396 77T464 150T512 262T531 406Z" />
<glyph unicode="&#xd9;" glyph-name="Ugrave" horiz-adv-x="656" d="M313 745L358 848L544 712L540 704L313 745ZM579 208Q573 171 556 132T509 62T433 10T324 -10Q256 -10 206 9T125 60T83 135T79 229L140 597L84 656L85 662H366L365 656L278 597L216 223Q211
192 217 164T240 115T286 81T356 68Q392 68 419 80T466 112T498 160T515 217L578 597L513 656L514 662H721L720 656L644 597L579 208Z" />
<glyph unicode="&#xda;" glyph-name="Uacute" horiz-adv-x="656" d="M323 704L320 712L524 849L565 744L323 704ZM579 208Q573 171 556 132T509 62T433 10T324 -10Q256 -10 206 9T125 60T83 135T79 229L140 597L84 656L85 662H366L365 656L278 597L216 223Q211
192 217 164T240 115T286 81T356 68Q392 68 419 80T466 112T498 160T515 217L578 597L513 656L514 662H721L720 656L644 597L579 208Z" />
<glyph unicode="&#xdb;" glyph-name="Ucircumflex" horiz-adv-x="656" d="M455 853L561 700L556 694L443 745L296 694L292 700L455 853ZM579 208Q573 171 556 132T509 62T433 10T324 -10Q256 -10 206 9T125 60T83 135T79 229L140 597L84 656L85 662H366L365 656L278
597L216 223Q211 192 217 164T240 115T286 81T356 68Q392 68 419 80T466 112T498 160T515 217L578 597L513 656L514 662H721L720 656L644 597L579 208Z" />
<glyph unicode="&#xdc;" glyph-name="Udieresis" horiz-adv-x="656" d="M579 208Q573 171 556 132T509 62T433 10T324 -10Q256 -10 206 9T125 60T83 135T79 229L140 597L84 656L85 662H366L365 656L278 597L216 223Q211 192 217 164T240 115T286 81T356 68Q392
68 419 80T466 112T498 160T515 217L578 597L513 656L514 662H721L720 656L644 597L579 208ZM530 822Q557 822 575 805T594 761Q594 736 576 718T530 700Q505 700 488 718T471 761Q471 787 488 804T530 822ZM343 822Q369 822 386 805T404 761Q404 736 387 718T343
700Q317 700 300 718T282 761Q282 787 299 804T343 822Z" />
<glyph unicode="&#xdd;" glyph-name="Yacute" horiz-adv-x="588" d="M456 656L457 662H656L655 656L586 597L389 331L345 68L401 6L400 0H129L130 6L207 68L248 316L127 597L78 656L79 662H351L350 656L273 597L361 387L511 593L456 656ZM287 704L284 712L488
849L529 744L287 704Z" />
<glyph unicode="&#xde;" glyph-name="Thorn" horiz-adv-x="538" d="M265 462L199 65L253 6L252 0H-16L-15 6L60 65L150 597L94 656L95 662H365L364 656L288 597L274 513H318Q365 513 405 505T474 479T520 435T537 371Q537 326 514 292T452 235T360 199T247 185L249
198Q279 208 307 223T356 260T390 308T403 368Q403 417 373 439T295 462H265Z" />
<glyph unicode="&#xdf;" glyph-name="germandbls" horiz-adv-x="476" d="M332 718Q376 718 408 708T460 682T491 644T501 601Q501 571 489 549T459 508T420 475T381 446T351 416T339 383Q339 366 349 346T385 286Q400 262 412 243T433 205T445 170T450 132Q450
103 439 78T406 33T354 2T286 -10Q247 -10 218 -1T178 14Q181 38 188 77T203 155H209Q224 103 245 72T289 40Q310 40 323 57T337 98Q337 121 327 142T290 204Q262 245 250 271T237 327Q237 354 248 375T276 414T312 451T349 490T377 536T388 595Q388 627 372 648T326
669Q289 669 263 636T226 543Q218 502 208 442T185 312T159 168T134 24Q126 -16 110 -60T62 -144T-17 -210T-134 -245L-151 -154L-148 -153Q-122 -156 -103 -159T-66 -163Q-49 -163 -37 -154T-15 -119T5 -49T27 66Q38 134 47 192T64 303T79 402T94 494Q101 543
121 584T171 655T242 701T332 718Z" />
<glyph unicode="&#xe0;" glyph-name="agrave" horiz-adv-x="450" d="M416 23V17Q381 10 332 4T224 -9L251 128Q206 66 162 27T86 -12Q72 -12 58 -4T33 20T15 58T8 110Q8 173 34 227T102 323T199 388T309 415L441 475L362 70L416 23ZM147 79Q161 79 192 109T263
187L301 375Q269 373 239 350T185 290T147 208T132 117Q132 100 136 90T147 79ZM575 485L430 660L534 713L583 490L575 485Z" />
<glyph unicode="&#xe1;" glyph-name="aacute" horiz-adv-x="450" d="M416 23V17Q381 10 332 4T224 -9L251 128Q206 66 162 27T86 -12Q72 -12 58 -4T33 20T15 58T8 110Q8 173 34 227T102 323T199 388T309 415L441 475L362 70L416 23ZM147 79Q161 79 192 109T263
187L301 375Q269 373 239 350T185 290T147 208T132 117Q132 100 136 90T147 79ZM225 485L218 490L335 713L420 641L225 485Z" />
<glyph unicode="&#xe2;" glyph-name="acircumflex" horiz-adv-x="450" d="M416 23V17Q381 10 332 4T224 -9L251 128Q206 66 162 27T86 -12Q72 -12 58 -4T33 20T15 58T8 110Q8 173 34 227T102 323T199 388T309 415L441 475L362 70L416 23ZM147 79Q161 79 192 109T263
187L301 375Q269 373 239 350T185 290T147 208T132 117Q132 100 136 90T147 79ZM309 713L375 481L367 478L288 571L168 478L162 483L309 713Z" />
<glyph unicode="&#xe3;" glyph-name="atilde" horiz-adv-x="450" d="M416 23V17Q381 10 332 4T224 -9L251 128Q206 66 162 27T86 -12Q72 -12 58 -4T33 20T15 58T8 110Q8 173 34 227T102 323T199 388T309 415L441 475L362 70L416 23ZM147 79Q161 79 192 109T263
187L301 375Q269 373 239 350T185 290T147 208T132 117Q132 100 136 90T147 79ZM243 623Q252 623 266 619T295 610T324 600T348 596Q359 596 379 613T418 654L425 651Q417 621 407 596T384 553T360 524T336 514Q325 514 311 518T282 527T254 537T232 541Q218 541
198 524T158 483L151 485Q160 514 171 539T195 583T220 612T243 623Z" />
<glyph unicode="&#xe4;" glyph-name="adieresis" horiz-adv-x="450" d="M416 23V17Q381 10 332 4T224 -9L251 128Q206 66 162 27T86 -12Q72 -12 58 -4T33 20T15 58T8 110Q8 173 34 227T102 323T199 388T309 415L441 475L362 70L416 23ZM147 79Q161 79 192 109T263
187L301 375Q269 373 239 350T185 290T147 208T132 117Q132 100 136 90T147 79ZM356 629Q382 629 400 612T419 568Q419 543 401 525T356 507Q330 507 313 525T296 568Q296 594 313 611T356 629ZM185 629Q212 629 229 612T247 568Q247 543 230 525T185 507Q160 507
142 525T124 568Q124 594 142 611T185 629Z" />
<glyph unicode="&#xe5;" glyph-name="aring" horiz-adv-x="450" d="M416 23V17Q381 10 332 4T224 -9L251 128Q206 66 162 27T86 -12Q72 -12 58 -4T33 20T15 58T8 110Q8 173 34 227T102 323T199 388T309 415L441 475L362 70L416 23ZM147 79Q161 79 192 109T263
187L301 375Q269 373 239 350T185 290T147 208T132 117Q132 100 136 90T147 79ZM226 579Q226 559 239 544T274 529Q295 529 308 543T322 579Q322 599 309 614T274 630Q253 630 240 615T226 579ZM183 579Q183 598 190 614T211 643T240 662T274 669Q292 669 309 662T338
643T358 615T366 579Q366 541 339 516T274 490Q256 490 240 496T211 515T191 543T183 579Z" />
<glyph unicode="&#xe6;" glyph-name="ae" horiz-adv-x="631" d="M384 -10Q365 -10 344 -3T306 21T276 64T262 127Q243 100 222 76T180 32T139 1T100 -11Q83 -11 67 -3T39 22T19 62T11 118Q11 184 36 242T105 343T204 411T320 436Q357 436 385 430T430 414Q457
428 485 436T541 444Q593 444 615 428T637 392Q637 381 628 362T594 321T522 281T400 248Q395 228 393 206T390 160Q390 117 404 95T440 73Q458 73 478 81T516 101T552 129T582 157L596 145Q550 64 496 27T384 -10ZM306 390Q273 390 243 369T190 311T154 226T140
123Q140 101 144 89T157 76Q171 76 200 104T264 176Q272 235 299 284T367 370Q357 378 342 384T306 390ZM535 386Q535 405 516 405Q506 405 492 397T464 373T435 334T410 281Q446 291 470 305T508 334T529 362T535 386Z" />
<glyph unicode="&#xe7;" glyph-name="ccedilla" horiz-adv-x="368" d="M279 446Q312 446 341 442T387 432L344 314H338Q329 328 319 342T298 368T278 387T261 395Q244 395 224 376T185 323T154 246T141 150Q141 111 152 91T178 71Q204 71 240 94T314 154L327 145Q310
114 288 86T240 37T185 2Q165 -6 145 -8L116 -57Q144 -69 166 -90T188 -145Q188 -164 177 -183T141 -218T78 -244T-16 -257L-17 -249Q1 -241 20 -231T56 -209T83 -186T94 -162Q94 -154 89 -147T78 -133T64 -123T50 -116L49 -113Q67 -82 82 -57Q95 -36 105 -18Q109
-12 111 -9Q100 -6 87 -1Q68 8 52 27T24 74T13 141Q13 203 35 258T94 355T179 421T279 446Z" />
<glyph unicode="&#xe8;" glyph-name="egrave" horiz-adv-x="382" d="M135 -10Q115 -10 94 -2T54 24T25 70T13 139Q13 203 38 259T104 356T193 420T292 444Q344 444 366 428T388 392Q388 381 379 362T345 321T273 281T151 248Q146 228 144 206T141 160Q141 117
155 95T191 73Q210 73 230 81T268 102T304 129T334 156L347 146Q309 75 254 33T135 -10ZM266 405Q256 405 243 397T215 373T186 334T161 281Q197 291 221 305T259 334T280 362T286 386Q286 405 266 405ZM549 485L404 660L508 713L557 490L549 485Z" />
<glyph unicode="&#xe9;" glyph-name="eacute" horiz-adv-x="382" d="M198 485L191 490L308 713L393 641L198 485ZM135 -10Q115 -10 94 -2T54 24T25 70T13 139Q13 203 38 259T104 356T193 420T292 444Q344 444 366 428T388 392Q388 381 379 362T345 321T273 281T151
248Q146 228 144 206T141 160Q141 117 155 95T191 73Q210 73 230 81T268 102T304 129T334 156L347 146Q309 75 254 33T135 -10ZM266 405Q256 405 243 397T215 373T186 334T161 281Q197 291 221 305T259 334T280 362T286 386Q286 405 266 405Z" />
<glyph unicode="&#xea;" glyph-name="ecircumflex" horiz-adv-x="382" d="M541 713L607 481L599 478L520 571L400 478L394 483L541 713ZM135 -10Q115 -10 94 -2T54 24T25 70T13 139Q13 203 38 259T104 356T193 420T292 444Q344 444 366 428T388 392Q388 381 379
362T345 321T273 281T151 248Q146 228 144 206T141 160Q141 117 155 95T191 73Q210 73 230 81T268 102T304 129T334 156L347 146Q309 75 254 33T135 -10ZM266 405Q256 405 243 397T215 373T186 334T161 281Q197 291 221 305T259 334T280 362T286 386Q286 405 266
405Z" />
<glyph unicode="&#xeb;" glyph-name="edieresis" horiz-adv-x="382" d="M602 629Q628 629 646 612T665 568Q665 543 647 525T602 507Q576 507 559 525T542 568Q542 594 559 611T602 629ZM431 629Q458 629 475 612T493 568Q493 543 476 525T431 507Q406 507 388
525T370 568Q370 594 388 611T431 629ZM135 -10Q115 -10 94 -2T54 24T25 70T13 139Q13 203 38 259T104 356T193 420T292 444Q344 444 366 428T388 392Q388 381 379 362T345 321T273 281T151 248Q146 228 144 206T141 160Q141 117 155 95T191 73Q210 73 230 81T268
102T304 129T334 156L347 146Q309 75 254 33T135 -10ZM266 405Q256 405 243 397T215 373T186 334T161 281Q197 291 221 305T259 334T280 362T286 386Q286 405 266 405Z" />
<glyph unicode="&#xec;" glyph-name="igrave" horiz-adv-x="250" d="M88 340L36 382L38 388Q48 392 70 399T120 415T177 432T231 447L157 70L213 23V17Q175 10 127 3T18 -9L88 340ZM469 485L324 660L428 713L477 490L469 485Z" />
<glyph unicode="&#xed;" glyph-name="iacute" horiz-adv-x="250" d="M376 485L369 490L486 713L571 641L376 485ZM88 340L36 382L38 388Q48 392 70 399T120 415T177 432T231 447L157 70L213 23V17Q175 10 127 3T18 -9L88 340Z" />
<glyph unicode="&#xee;" glyph-name="icircumflex" horiz-adv-x="250" d="M462 713L528 481L520 478L441 571L321 478L315 483L462 713ZM88 340L36 382L38 388Q48 392 70 399T120 415T177 432T231 447L157 70L213 23V17Q175 10 127 3T18 -9L88 340Z" />
<glyph unicode="&#xef;" glyph-name="idieresis" horiz-adv-x="250" d="M88 340L36 382L38 388Q48 392 70 399T120 415T177 432T231 447L157 70L213 23V17Q175 10 127 3T18 -9L88 340ZM263 629Q289 629 307 612T326 568Q326 543 308 525T263 507Q237 507 220 525T203
568Q203 594 220 611T263 629ZM97 629Q123 629 140 612T158 568Q158 543 141 525T97 507Q71 507 54 525T36 568Q36 594 53 611T97 629Z" />
<glyph unicode="&#xf0;" glyph-name="eth" horiz-adv-x="452" d="M194 720Q221 706 253 684T317 631L419 688L440 647L349 597Q388 550 414 490T441 351Q441 266 418 199T357 85T275 13T185 -12Q147 -12 116 1T62 38T28 94T16 164Q16 224 35 274T87 361T162 417T251
437Q270 437 283 434T304 426Q298 496 275 556L136 479L115 519L257 598Q241 630 223 658T187 712L194 720ZM188 36Q206 36 226 64T265 139T295 248T307 378Q301 381 292 383T271 386Q246 386 223 367T183 314T156 236T145 140Q145 93 156 65T188 36Z" />
<glyph unicode="&#xf1;" glyph-name="ntilde" horiz-adv-x="493" d="M18 0L88 341L36 382V388Q47 392 69 399T119 415T176 432T231 447L199 288Q237 334 268 364T325 412T372 437T412 444Q424 444 435 441T455 430T467 409T467 377Q467 375 463 356T452 306T437
241T422 172T408 111T398 70L452 23V17Q417 10 367 4T257 -9Q260 5 267 36T282 104T300 182T316 255T329 309T334 332Q337 345 327 345Q321 345 307 336T273 311T232 274T187 228L141 0H18ZM265 623Q274 623 288 619T317 610T346 600T370 596Q381 596 401 613T440
654L447 651Q439 621 429 596T406 553T382 524T358 514Q347 514 333 518T304 527T276 537T254 541Q240 541 220 524T180 483L173 485Q182 514 193 539T217 583T242 612T265 623Z" />
<glyph unicode="&#xf2;" glyph-name="ograve" horiz-adv-x="447" d="M189 -12Q156 -12 125 -1T70 32T31 86T16 160Q16 221 37 273T94 363T173 422T262 444Q293 444 323 433T377 401T415 349T430 278Q430 213 409 160T353 68T275 9T189 -12ZM192 36Q210 36 229
60T265 122T292 208T303 303Q303 354 289 375T259 396Q239 396 219 374T182 315T155 233T145 141Q145 90 158 63T192 36ZM561 485L416 660L520 713L569 490L561 485Z" />
<glyph unicode="&#xf3;" glyph-name="oacute" horiz-adv-x="447" d="M216 485L209 490L326 713L411 641L216 485ZM189 -12Q156 -12 125 -1T70 32T31 86T16 160Q16 221 37 273T94 363T173 422T262 444Q293 444 323 433T377 401T415 349T430 278Q430 213 409 160T353
68T275 9T189 -12ZM192 36Q210 36 229 60T265 122T292 208T303 303Q303 354 289 375T259 396Q239 396 219 374T182 315T155 233T145 141Q145 90 158 63T192 36Z" />
<glyph unicode="&#xf4;" glyph-name="ocircumflex" horiz-adv-x="447" d="M306 713L372 481L364 478L285 571L165 478L159 483L306 713ZM189 -12Q156 -12 125 -1T70 32T31 86T16 160Q16 221 37 273T94 363T173 422T262 444Q293 444 323 433T377 401T415 349T430
278Q430 213 409 160T353 68T275 9T189 -12ZM192 36Q210 36 229 60T265 122T292 208T303 303Q303 354 289 375T259 396Q239 396 219 374T182 315T155 233T145 141Q145 90 158 63T192 36Z" />
<glyph unicode="&#xf5;" glyph-name="otilde" horiz-adv-x="447" d="M189 -12Q156 -12 125 -1T70 32T31 86T16 160Q16 221 37 273T94 363T173 422T262 444Q293 444 323 433T377 401T415 349T430 278Q430 213 409 160T353 68T275 9T189 -12ZM192 36Q210 36 229
60T265 122T292 208T303 303Q303 354 289 375T259 396Q239 396 219 374T182 315T155 233T145 141Q145 90 158 63T192 36ZM241 623Q250 623 264 619T293 610T322 600T346 596Q357 596 377 613T416 654L423 651Q415 621 405 596T382 553T358 524T334 514Q323 514
309 518T280 527T252 537T230 541Q216 541 196 524T156 483L149 485Q158 514 169 539T193 583T218 612T241 623Z" />
<glyph unicode="&#xf6;" glyph-name="odieresis" horiz-adv-x="447" d="M362 629Q388 629 406 612T425 568Q425 543 407 525T362 507Q336 507 319 525T302 568Q302 594 319 611T362 629ZM191 629Q218 629 235 612T253 568Q253 543 236 525T191 507Q166 507 148
525T130 568Q130 594 148 611T191 629ZM189 -12Q156 -12 125 -1T70 32T31 86T16 160Q16 221 37 273T94 363T173 422T262 444Q293 444 323 433T377 401T415 349T430 278Q430 213 409 160T353 68T275 9T189 -12ZM192 36Q210 36 229 60T265 122T292 208T303 303Q303
354 289 375T259 396Q239 396 219 374T182 315T155 233T145 141Q145 90 158 63T192 36Z" />
<glyph unicode="&#xf7;" glyph-name="divide" horiz-adv-x="412" d="M30 222L39 273H389L380 222H30ZM117 87Q117 113 135 131T179 149Q205 149 223 131T241 87Q241 61 223 44T179 26Q153 26 135 43T117 87ZM176 403Q176 429 194 447T238 465Q265 465 282 447T300
403Q300 377 283 360T238 342Q212 342 194 359T176 403Z" />
<glyph unicode="&#xf8;" glyph-name="oslash" horiz-adv-x="447" d="M16 -46L70 32Q45 54 31 86T16 160Q16 221 37 273T94 363T173 422T262 444Q301 444 341 425L390 497L425 473L376 402Q400 381 415 350T430 278Q430 213 409 160T353 68T275 9T189 -12Q144 -12
104 8L51 -68L16 -46ZM191 36Q212 36 233 60T271 123T299 209T310 304V306L148 72Q161 36 191 36ZM138 131L300 366Q292 382 281 389T259 396Q239 396 218 374T179 315T150 233T138 140V131Z" />
<glyph unicode="&#xf9;" glyph-name="ugrave" horiz-adv-x="481" d="M286 152Q226 69 176 30T81 -10Q49 -10 35 4T21 32Q21 45 29 79L90 341L38 384V390Q49 394 72 401T124 416T183 434T238 449Q235 435 228 404T211 334T192 254T174 178T161 122T156 99Q154 90
164 90Q171 90 185 99T217 126T257 166T299 217L343 432H466L392 69L446 23V17Q373 3 254 -9L286 152ZM581 485L436 660L540 713L589 490L581 485Z" />
<glyph unicode="&#xfa;" glyph-name="uacute" horiz-adv-x="481" d="M254 485L247 490L364 713L449 641L254 485ZM286 152Q226 69 176 30T81 -10Q49 -10 35 4T21 32Q21 45 29 79L90 341L38 384V390Q49 394 72 401T124 416T183 434T238 449Q235 435 228 404T211
334T192 254T174 178T161 122T156 99Q154 90 164 90Q171 90 185 99T217 126T257 166T299 217L343 432H466L392 69L446 23V17Q373 3 254 -9L286 152Z" />
<glyph unicode="&#xfb;" glyph-name="ucircumflex" horiz-adv-x="481" d="M329 713L395 481L387 478L308 571L188 478L182 483L329 713ZM286 152Q226 69 176 30T81 -10Q49 -10 35 4T21 32Q21 45 29 79L90 341L38 384V390Q49 394 72 401T124 416T183 434T238 449Q235
435 228 404T211 334T192 254T174 178T161 122T156 99Q154 90 164 90Q171 90 185 99T217 126T257 166T299 217L343 432H466L392 69L446 23V17Q373 3 254 -9L286 152Z" />
<glyph unicode="&#xfc;" glyph-name="udieresis" horiz-adv-x="481" d="M381 629Q407 629 425 612T444 568Q444 543 426 525T381 507Q355 507 338 525T321 568Q321 594 338 611T381 629ZM210 629Q237 629 254 612T272 568Q272 543 255 525T210 507Q185 507 167
525T149 568Q149 594 167 611T210 629ZM286 152Q226 69 176 30T81 -10Q49 -10 35 4T21 32Q21 45 29 79L90 341L38 384V390Q49 394 72 401T124 416T183 434T238 449Q235 435 228 404T211 334T192 254T174 178T161 122T156 99Q154 90 164 90Q171 90 185 99T217 126T257
166T299 217L343 432H466L392 69L446 23V17Q373 3 254 -9L286 152Z" />
<glyph unicode="&#xfd;" glyph-name="yacute" horiz-adv-x="398" d="M296 350Q296 364 287 376T269 396V401L381 440Q392 430 400 415T409 385Q409 365 397 340T359 276T292 183T194 51Q163 8 135 -36T84 -119T43 -193T17 -250L-118 -234V-228Q-57 -181 -3 -125T95
-14Q92 27 89 78T81 180T72 276T64 351L15 393L16 400Q26 403 44 409T85 421T130 435T171 447Q175 422 178 383T185 300T191 210T196 127Q229 185 249 224T279 288T293 327T296 350ZM212 485L205 490L322 713L407 641L212 485Z" />
<glyph unicode="&#xfe;" glyph-name="thorn" horiz-adv-x="451" d="M88 -182L177 -236L176 -242H-97L-96 -236L-35 -186L125 617L64 660L65 666Q76 670 100 677T154 693T214 711T269 726Q259 676 249 623T228 515T207 408T186 307Q232 370 278 407T358 444Q371
444 385 437T412 414T432 375T440 318Q440 255 418 197T359 93T271 21T162 -6Q139 -6 124 -1L88 -182ZM290 352Q275 352 243 323T173 244Q165 202 158 168T146 109Q140 80 135 56Q138 51 145 46T164 40Q189 40 215 64T262 126T296 212T310 305Q310 330 304 341T290
352Z" />
<glyph unicode="&#xff;" glyph-name="ydieresis" horiz-adv-x="398" d="M296 350Q296 364 287 376T269 396V401L381 440Q392 430 400 415T409 385Q409 365 397 340T359 276T292 183T194 51Q163 8 135 -36T84 -119T43 -193T17 -250L-118 -234V-228Q-57 -181 -3
-125T95 -14Q92 27 89 78T81 180T72 276T64 351L15 393L16 400Q26 403 44 409T85 421T130 435T171 447Q175 422 178 383T185 300T191 210T196 127Q229 185 249 224T279 288T293 327T296 350ZM591 629Q617 629 635 612T654 568Q654 543 636 525T591 507Q565 507
548 525T531 568Q531 594 548 611T591 629ZM420 629Q447 629 464 612T482 568Q482 543 465 525T420 507Q395 507 377 525T359 568Q359 594 377 611T420 629Z" />
<glyph unicode="&#x100;" glyph-name="Amacron" horiz-adv-x="584" d="M159 6L157 0H-39L-37 6L34 65L359 668H388L500 65L545 6L543 0H279L281 6L359 65L336 197H170L102 70L159 6ZM199 251H326L295 430L199 251ZM521 785L507 713H251L266 785H521Z" />
<glyph unicode="&#x101;" glyph-name="amacron" horiz-adv-x="450" d="M416 23V17Q381 10 332 4T224 -9L251 128Q206 66 162 27T86 -12Q72 -12 58 -4T33 20T15 58T8 110Q8 173 34 227T102 323T199 388T309 415L441 475L362 70L416 23ZM147 79Q161 79 192 109T263
187L301 375Q269 373 239 350T185 290T147 208T132 117Q132 100 136 90T147 79ZM174 590H395L380 519H159L174 590Z" />
<glyph unicode="&#x102;" glyph-name="Abreve" horiz-adv-x="584" d="M159 6L157 0H-39L-37 6L34 65L359 668H388L500 65L545 6L543 0H279L281 6L359 65L336 197H170L102 70L159 6ZM199 251H326L295 430L199 251ZM507 835Q497 776 465 738T375 700Q344 700 325
713T295 747T282 790T282 835L289 836Q297 815 317 797T381 779Q422 779 452 797T500 836L507 835Z" />
<glyph unicode="&#x103;" glyph-name="abreve" horiz-adv-x="450" d="M416 23V17Q381 10 332 4T224 -9L251 128Q206 66 162 27T86 -12Q72 -12 58 -4T33 20T15 58T8 110Q8 173 34 227T102 323T199 388T309 415L441 475L362 70L416 23ZM147 79Q161 79 192 109T263
187L301 375Q269 373 239 350T185 290T147 208T132 117Q132 100 136 90T147 79ZM393 639Q385 574 354 536T270 497Q241 497 223 510T195 544T183 590T186 639L194 640Q201 614 219 596T276 577Q311 577 339 595T385 640L393 639Z" />
<glyph unicode="&#x104;" glyph-name="Aogonek" horiz-adv-x="584" d="M370 0L335 197H170L102 70L159 6L157 0H-39L-37 6L34 65L359 668H388L500 65L545 6L543 0H401Q390 -12 376 -27T350 -61T330 -98T322 -137Q322 -154 332 -167T365 -180Q391 -180 412 -171T445
-154L450 -158Q445 -168 434 -184T405 -216T360 -243T299 -254Q257 -254 232 -232T207 -175Q207 -147 222 -122T261 -74T313 -33T370 0ZM199 251H325L294 427L199 251Z" />
<glyph unicode="&#x105;" glyph-name="aogonek" horiz-adv-x="450" d="M73 -175Q73 -149 86 -124T121 -77T170 -35T226 -1L252 129Q207 66 163 27T86 -12Q72 -12 58 -4T33 20T15 58T8 110Q8 173 34 227T102 323T199 388T309 415L441 475L362 70L416 23V17Q387
11 343 5T250 -7Q239 -19 228 -34T208 -66T193 -101T187 -137Q187 -154 197 -167T230 -180Q256 -180 277 -171T310 -154L315 -158Q310 -168 299 -184T270 -216T225 -243T164 -254Q122 -254 98 -232T73 -175ZM147 79Q161 79 192 109T263 187L301 375Q269 373 239
350T185 290T147 208T132 117Q132 100 136 90T147 79Z" />
<glyph unicode="&#x106;" glyph-name="Cacute" horiz-adv-x="608" d="M347 -10Q286 -10 231 8T135 62T69 151T44 274Q44 358 77 431T166 557T295 641T449 672Q507 672 555 664T625 648L598 490H591Q553 548 512 580T434 613Q396 613 354 589T276 520T218 415T195
278Q195 224 209 182T245 110T296 66T353 50Q385 50 415 62T470 92T514 129T545 161H553L528 13Q521 11 505 7T465 -1T411 -7T347 -10ZM322 704L319 712L523 849L564 744L322 704Z" />
<glyph unicode="&#x107;" glyph-name="cacute" horiz-adv-x="368" d="M206 485L199 490L316 713L401 641L206 485ZM279 446Q312 446 341 442T387 432L344 314H338Q329 328 319 342T298 368T278 387T261 395Q244 395 224 376T185 323T154 246T141 150Q141 111 152
91T178 71Q204 71 240 94T314 154L327 145Q310 114 288 86T240 37T185 3T125 -10Q107 -10 88 -1T52 27T24 74T13 141Q13 203 35 258T94 355T179 421T279 446Z" />
<glyph unicode="&#x108;" glyph-name="Ccircumflex" horiz-adv-x="608" d="M449 853L555 700L550 694L437 745L290 694L286 700L449 853ZM347 -10Q286 -10 231 8T135 62T69 151T44 274Q44 358 77 431T166 557T295 641T449 672Q507 672 555 664T625 648L598 490H591Q553
548 512 580T434 613Q396 613 354 589T276 520T218 415T195 278Q195 224 209 182T245 110T296 66T353 50Q385 50 415 62T470 92T514 129T545 161H553L528 13Q521 11 505 7T465 -1T411 -7T347 -10Z" />
<glyph unicode="&#x109;" glyph-name="ccircumflex" horiz-adv-x="368" d="M551 713L617 481L609 478L530 571L410 478L404 483L551 713ZM279 446Q312 446 341 442T387 432L344 314H338Q329 328 319 342T298 368T278 387T261 395Q244 395 224 376T185 323T154
246T141 150Q141 111 152 91T178 71Q204 71 240 94T314 154L327 145Q310 114 288 86T240 37T185 3T125 -10Q107 -10 88 -1T52 27T24 74T13 141Q13 203 35 258T94 355T179 421T279 446Z" />
<glyph unicode="&#x10a;" glyph-name="Cdotaccent" horiz-adv-x="608" d="M347 -10Q286 -10 231 8T135 62T69 151T44 274Q44 358 77 431T166 557T295 641T449 672Q507 672 555 664T625 648L598 490H591Q553 548 512 580T434 613Q396 613 354 589T276 520T218 415T195
278Q195 224 209 182T245 110T296 66T353 50Q385 50 415 62T470 92T514 129T545 161H553L528 13Q521 11 505 7T465 -1T411 -7T347 -10ZM431 832Q460 832 479 813T499 767Q499 741 480 722T431 702Q404 702 386 721T367 767Q367 794 385 813T431 832Z" />
<glyph unicode="&#x10b;" glyph-name="cdotaccent" horiz-adv-x="368" d="M279 446Q312 446 341 442T387 432L344 314H338Q329 328 319 342T298 368T278 387T261 395Q244 395 224 376T185 323T154 246T141 150Q141 111 152 91T178 71Q204 71 240 94T314 154L327
145Q310 114 288 86T240 37T185 3T125 -10Q107 -10 88 -1T52 27T24 74T13 141Q13 203 35 258T94 355T179 421T279 446ZM263 638Q292 638 311 619T331 573Q331 546 312 527T263 508Q236 508 218 527T199 573Q199 600 217 619T263 638Z" />
<glyph unicode="&#x10c;" glyph-name="Ccaron" horiz-adv-x="608" d="M427 691L320 844L325 850L439 799L586 850L590 844L427 691ZM347 -10Q286 -10 231 8T135 62T69 151T44 274Q44 358 77 431T166 557T295 641T449 672Q507 672 555 664T625 648L598 490H591Q553
548 512 580T434 613Q396 613 354 589T276 520T218 415T195 278Q195 224 209 182T245 110T296 66T353 50Q385 50 415 62T470 92T514 129T545 161H553L528 13Q521 11 505 7T465 -1T411 -7T347 -10Z" />
<glyph unicode="&#x10d;" glyph-name="ccaron" horiz-adv-x="368" d="M241 477L175 709L182 712L262 619L381 712L388 707L241 477ZM279 446Q312 446 341 442T387 432L344 314H338Q329 328 319 342T298 368T278 387T261 395Q244 395 224 376T185 323T154 246T141
150Q141 111 152 91T178 71Q204 71 240 94T314 154L327 145Q310 114 288 86T240 37T185 3T125 -10Q107 -10 88 -1T52 27T24 74T13 141Q13 203 35 258T94 355T179 421T279 446Z" />
<glyph unicode="&#x10e;" glyph-name="Dcaron" horiz-adv-x="670" d="M385 691L278 844L283 850L397 799L544 850L548 844L385 691ZM328 662Q398 662 460 645T568 592T640 503T667 377Q667 310 643 243T572 121T454 34T293 0H-16L-15 6L60 64L150 597L94 656L95
662H328ZM291 610L199 68Q210 63 233 58T290 52Q338 52 380 75T453 140T501 239T519 363Q519 429 503 476T459 553T394 596T314 610H291Z" />
<glyph unicode="&#x10f;" glyph-name="dcaron" horiz-adv-x="465" d="M502 499L562 715H660L511 499H502ZM14 130Q14 197 38 253T104 350T200 413T316 436H328L364 618L302 660V666Q313 670 337 677T390 693T451 711T508 726L377 70L432 23L431 17Q396 10 349
4T242 -9L267 120Q238 83 214 58T171 18T135 -4T106 -11Q92 -11 76 -3T47 22T24 65T14 130ZM316 380Q311 384 301 387T279 391Q256 391 232 371T189 317T157 237T144 140Q144 114 149 96T164 78Q175 78 202 100T276 175L316 380Z" />
<glyph unicode="&#x110;" glyph-name="Dcroat" horiz-adv-x="670" d="M328 662Q399 662 461 645T568 592T640 503T667 377Q667 310 643 243T572 121T455 34T293 0H-16L-15 6L61 64L102 311H28L37 363H110L150 597L94 656L95 662H328ZM240 311L199 68Q210 63 233
58T290 52Q338 52 380 75T453 140T501 239T519 363Q519 429 503 476T460 553T395 596T315 610H291L249 363H397L388 311H240Z" />
<glyph unicode="&#x111;" glyph-name="dcroat" horiz-adv-x="465" d="M532 514H211L222 561H542L532 514ZM14 130Q14 197 38 253T104 350T200 413T316 436H328L364 618L302 660V666Q313 670 337 677T390 693T451 711T508 726L377 70L432 23L431 17Q396 10 349
4T242 -9L267 120Q238 83 214 58T171 18T135 -4T106 -11Q92 -11 76 -3T47 22T24 65T14 130ZM316 380Q311 384 301 387T279 391Q256 391 232 371T189 317T157 237T144 140Q144 114 149 96T164 78Q175 78 202 100T276 175L316 380Z" />
<glyph unicode="&#x112;" glyph-name="Emacron" horiz-adv-x="496" d="M-16 0L-15 6L60 65L149 597L93 656L94 662H513L489 514H482L423 606H289L250 376H389L458 448H464L429 247H423L380 321H240L196 57H345L445 174H452L422 0H-16ZM472 785L458 713H202L217 785H472Z" />
<glyph unicode="&#x113;" glyph-name="emacron" horiz-adv-x="382" d="M135 -10Q115 -10 94 -2T54 24T25 70T13 139Q13 203 38 259T104 356T193 420T292 444Q344 444 366 428T388 392Q388 381 379 362T345 321T273 281T151 248Q146 228 144 206T141 160Q141 117
155 95T191 73Q210 73 230 81T268 102T304 129T334 156L347 146Q309 75 254 33T135 -10ZM266 405Q256 405 243 397T215 373T186 334T161 281Q197 291 221 305T259 334T280 362T286 386Q286 405 266 405ZM413 590H634L619 519H398L413 590Z" />
<glyph unicode="&#x114;" glyph-name="Ebreve" horiz-adv-x="496" d="M-16 0L-15 6L60 65L149 597L93 656L94 662H513L489 514H482L423 606H289L250 376H389L458 448H464L429 247H423L380 321H240L196 57H345L445 174H452L422 0H-16ZM457 835Q447 776 415 738T325
700Q294 700 275 713T245 747T232 790T232 835L239 836Q247 815 267 797T331 779Q372 779 402 797T450 836L457 835Z" />
<glyph unicode="&#x115;" glyph-name="ebreve" horiz-adv-x="382" d="M135 -10Q115 -10 94 -2T54 24T25 70T13 139Q13 203 38 259T104 356T193 420T292 444Q344 444 366 428T388 392Q388 381 379 362T345 321T273 281T151 248Q146 228 144 206T141 160Q141 117
155 95T191 73Q210 73 230 81T268 102T304 129T334 156L347 146Q309 75 254 33T135 -10ZM266 405Q256 405 243 397T215 373T186 334T161 281Q197 291 221 305T259 334T280 362T286 386Q286 405 266 405ZM629 639Q621 574 590 536T506 497Q477 497 459 510T431 544T419
590T422 639L430 640Q437 614 455 596T512 577Q547 577 575 595T621 640L629 639Z" />
<glyph unicode="&#x116;" glyph-name="Edotaccent" horiz-adv-x="496" d="M331 832Q360 832 379 813T399 767Q399 741 380 722T331 702Q304 702 286 721T267 767Q267 794 285 813T331 832ZM-16 0L-15 6L60 65L149 597L93 656L94 662H513L489 514H482L423 606H289L250
376H389L458 448H464L429 247H423L380 321H240L196 57H345L445 174H452L422 0H-16Z" />
<glyph unicode="&#x117;" glyph-name="edotaccent" horiz-adv-x="382" d="M135 -10Q115 -10 94 -2T54 24T25 70T13 139Q13 203 38 259T104 356T193 420T292 444Q344 444 366 428T388 392Q388 381 379 362T345 321T273 281T151 248Q146 228 144 206T141 160Q141
117 155 95T191 73Q210 73 230 81T268 102T304 129T334 156L347 146Q309 75 254 33T135 -10ZM266 405Q256 405 243 397T215 373T186 334T161 281Q197 291 221 305T259 334T280 362T286 386Q286 405 266 405ZM266 638Q295 638 314 619T334 573Q334 546 315 527T266
508Q239 508 221 527T202 573Q202 600 220 619T266 638Z" />
<glyph unicode="&#x118;" glyph-name="Eogonek" horiz-adv-x="496" d="M249 -254Q207 -254 182 -232T157 -175Q157 -147 172 -122T210 -74T263 -33T320 0H350Q339 -12 326 -27T300 -61T280 -98T272 -137Q272 -154 282 -167T314 -180Q340 -180 361 -171T394 -154L399
-158Q394 -168 383 -184T354 -216T310 -243T249 -254ZM-16 0L-15 6L60 65L149 597L93 656L94 662H513L489 514H482L423 606H289L250 376H389L458 448H464L429 247H423L380 321H240L196 57H345L445 174H452L422 0H-16Z" />
<glyph unicode="&#x119;" glyph-name="eogonek" horiz-adv-x="382" d="M37 -175Q37 -150 49 -127T82 -82T133 -40T196 1Q182 -4 167 -7T135 -10Q115 -10 94 -2T54 24T25 70T13 139Q13 203 38 259T104 356T193 420T292 444Q344 444 366 428T388 392Q388 381 379
362T345 321T273 281T151 248Q146 228 144 206T141 160Q141 117 155 95T191 73Q210 73 230 81T268 102T304 129T334 156L347 146Q325 105 299 76T240 12Q225 -4 209 -22T180 -59T159 -97T151 -135Q151 -154 161 -167T194 -180Q220 -180 241 -171T274 -154L279 -158Q274
-168 263 -184T234 -216T190 -243T129 -254Q87 -254 62 -232T37 -175ZM266 405Q256 405 243 397T215 373T186 334T161 281Q197 291 221 305T259 334T280 362T286 386Q286 405 266 405Z" />
<glyph unicode="&#x11a;" glyph-name="Ecaron" horiz-adv-x="496" d="M322 691L215 844L220 850L334 799L481 850L485 844L322 691ZM-16 0L-15 6L60 65L149 597L93 656L94 662H513L489 514H482L423 606H289L250 376H389L458 448H464L429 247H423L380 321H240L196
57H345L445 174H452L422 0H-16Z" />
<glyph unicode="&#x11b;" glyph-name="ecaron" horiz-adv-x="382" d="M250 477L184 709L191 712L271 619L390 712L397 707L250 477ZM135 -10Q115 -10 94 -2T54 24T25 70T13 139Q13 203 38 259T104 356T193 420T292 444Q344 444 366 428T388 392Q388 381 379 362T345
321T273 281T151 248Q146 228 144 206T141 160Q141 117 155 95T191 73Q210 73 230 81T268 102T304 129T334 156L347 146Q309 75 254 33T135 -10ZM266 405Q256 405 243 397T215 373T186 334T161 281Q197 291 221 305T259 334T280 362T286 386Q286 405 266 405Z"
/>
<glyph unicode="&#x11c;" glyph-name="Gcircumflex" horiz-adv-x="655" d="M452 853L558 700L553 694L440 745L293 694L289 700L452 853ZM551 24Q536 21 515 15T469 4T415 -6T358 -10Q290 -10 233 9T133 65T68 154T44 271Q44 358 78 432T169 559T299 642T451 672Q510
672 559 664T633 647L605 490H599Q512 613 435 613Q395 613 353 588T275 519T218 413T195 279Q195 226 208 184T245 112T300 68T369 52Q387 52 401 54T428 60L465 278L400 337L401 344H662L661 337L593 273L551 24V24Z" />
<glyph unicode="&#x11d;" glyph-name="gcircumflex" horiz-adv-x="418" d="M531 713L597 481L589 478L510 571L390 478L384 483L531 713ZM35 279Q35 316 52 346T98 399T160 433T229 446Q263 446 296 432H451L425 378H352Q363 367 370 352T377 320Q377 284 360
254T314 201T250 166T181 153Q171 153 166 154Q152 140 147 131T141 115Q141 101 180 80Q224 55 261 37T336 -3Q385 -31 400 -51T415 -92Q415 -125 393 -154T335 -204T254 -237T162 -250Q100 -250 54 -241T-23 -217T-69 -187T-84 -159Q-84 -149 -76 -134T-48 -101T9
-61T103 -15Q102 -15 102 -15T100 -14Q31 26 31 59Q31 69 39 82T62 110T94 137T130 161Q90 174 63 205T35 279ZM268 -98Q240 -83 209 -69T135 -33Q81 -63 60 -89T38 -133Q38 -161 76 -179T175 -198Q211 -198 237 -192T280 -176T305 -156T313 -140Q313 -130 304
-122T268 -98ZM226 406Q214 406 201 395T177 366T158 322T151 267Q151 231 163 213T185 195Q201 195 214 208T237 243T252 289T258 338Q258 373 248 389T226 406Z" />
<glyph unicode="&#x11e;" glyph-name="Gbreve" horiz-adv-x="655" d="M551 835Q541 776 509 738T419 700Q388 700 369 713T339 747T326 790T326 835L333 836Q341 815 361 797T425 779Q466 779 496 797T544 836L551 835ZM551 24Q536 21 515 15T469 4T415 -6T358
-10Q290 -10 233 9T133 65T68 154T44 271Q44 358 78 432T169 559T299 642T451 672Q510 672 559 664T633 647L605 490H599Q512 613 435 613Q395 613 353 588T275 519T218 413T195 279Q195 226 208 184T245 112T300 68T369 52Q387 52 401 54T428 60L465 278L400 337L401
344H662L661 337L593 273L551 24V24Z" />
<glyph unicode="&#x11f;" glyph-name="gbreve" horiz-adv-x="418" d="M35 279Q35 316 52 346T98 399T160 433T229 446Q263 446 296 432H451L425 378H352Q363 367 370 352T377 320Q377 284 360 254T314 201T250 166T181 153Q171 153 166 154Q152 140 147 131T141
115Q141 101 180 80Q224 55 261 37T336 -3Q385 -31 400 -51T415 -92Q415 -125 393 -154T335 -204T254 -237T162 -250Q100 -250 54 -241T-23 -217T-69 -187T-84 -159Q-84 -149 -76 -134T-48 -101T9 -61T103 -15Q102 -15 102 -15T100 -14Q31 26 31 59Q31 69 39 82T62
110T94 137T130 161Q90 174 63 205T35 279ZM268 -98Q240 -83 209 -69T135 -33Q81 -63 60 -89T38 -133Q38 -161 76 -179T175 -198Q211 -198 237 -192T280 -176T305 -156T313 -140Q313 -130 304 -122T268 -98ZM226 406Q214 406 201 395T177 366T158 322T151 267Q151
231 163 213T185 195Q201 195 214 208T237 243T252 289T258 338Q258 373 248 389T226 406ZM615 639Q607 574 576 536T492 497Q463 497 445 510T417 544T405 590T408 639L416 640Q423 614 441 596T498 577Q533 577 561 595T607 640L615 639Z" />
<glyph unicode="&#x120;" glyph-name="Gdotaccent" horiz-adv-x="655" d="M436 832Q465 832 484 813T504 767Q504 741 485 722T436 702Q409 702 391 721T372 767Q372 794 390 813T436 832ZM551 24Q536 21 515 15T469 4T415 -6T358 -10Q290 -10 233 9T133 65T68
154T44 271Q44 358 78 432T169 559T299 642T451 672Q510 672 559 664T633 647L605 490H599Q512 613 435 613Q395 613 353 588T275 519T218 413T195 279Q195 226 208 184T245 112T300 68T369 52Q387 52 401 54T428 60L465 278L400 337L401 344H662L661 337L593 273L551
24V24Z" />
<glyph unicode="&#x121;" glyph-name="gdotaccent" horiz-adv-x="418" d="M35 279Q35 316 52 346T98 399T160 433T229 446Q263 446 296 432H451L425 378H352Q363 367 370 352T377 320Q377 284 360 254T314 201T250 166T181 153Q171 153 166 154Q152 140 147 131T141
115Q141 101 180 80Q224 55 261 37T336 -3Q385 -31 400 -51T415 -92Q415 -125 393 -154T335 -204T254 -237T162 -250Q100 -250 54 -241T-23 -217T-69 -187T-84 -159Q-84 -149 -76 -134T-48 -101T9 -61T103 -15Q102 -15 102 -15T100 -14Q31 26 31 59Q31 69 39 82T62
110T94 137T130 161Q90 174 63 205T35 279ZM268 -98Q240 -83 209 -69T135 -33Q81 -63 60 -89T38 -133Q38 -161 76 -179T175 -198Q211 -198 237 -192T280 -176T305 -156T313 -140Q313 -130 304 -122T268 -98ZM226 406Q214 406 201 395T177 366T158 322T151 267Q151
231 163 213T185 195Q201 195 214 208T237 243T252 289T258 338Q258 373 248 389T226 406ZM508 638Q537 638 556 619T576 573Q576 546 557 527T508 508Q481 508 463 527T444 573Q444 600 462 619T508 638Z" />
<glyph unicode="&#x122;" glyph-name="Gcommaaccent" horiz-adv-x="655" d="M362 -121Q362 -162 330 -202T242 -266L230 -261Q250 -238 269 -209T298 -157Q273 -158 258 -145T243 -109Q243 -86 258 -71T298 -56Q325 -56 343 -73T362 -121ZM551 24Q536 21 515 15T469
4T415 -6T358 -10Q290 -10 233 9T133 65T68 154T44 271Q44 358 78 432T169 559T299 642T451 672Q510 672 559 664T633 647L605 490H599Q512 613 435 613Q395 613 353 588T275 519T218 413T195 279Q195 226 208 184T245 112T300 68T369 52Q387 52 401 54T428 60L465
278L400 337L401 344H662L661 337L593 273L551 24V24Z" />
<glyph unicode="&#x123;" glyph-name="gcommaaccent" horiz-adv-x="418" d="M441 558Q441 598 473 639T561 702L573 697Q553 674 534 646T505 594Q530 595 545 582T560 545Q560 523 545 508T504 493Q478 493 460 510T441 558ZM35 279Q35 316 52 346T98 399T160
433T229 446Q263 446 296 432H451L425 378H352Q363 367 370 352T377 320Q377 284 360 254T314 201T250 166T181 153Q171 153 166 154Q152 140 147 131T141 115Q141 101 180 80Q224 55 261 37T336 -3Q385 -31 400 -51T415 -92Q415 -125 393 -154T335 -204T254 -237T162
-250Q100 -250 54 -241T-23 -217T-69 -187T-84 -159Q-84 -149 -76 -134T-48 -101T9 -61T103 -15Q102 -15 102 -15T100 -14Q31 26 31 59Q31 69 39 82T62 110T94 137T130 161Q90 174 63 205T35 279ZM268 -98Q240 -83 209 -69T135 -33Q81 -63 60 -89T38 -133Q38 -161
76 -179T175 -198Q211 -198 237 -192T280 -176T305 -156T313 -140Q313 -130 304 -122T268 -98ZM226 406Q214 406 201 395T177 366T158 322T151 267Q151 231 163 213T185 195Q201 195 214 208T237 243T252 289T258 338Q258 373 248 389T226 406Z" />
<glyph unicode="&#x124;" glyph-name="Hcircumflex" horiz-adv-x="705" d="M249 365H505L544 597L488 656L489 662H759L758 656L682 597L593 65L648 6L647 0H378L379 6L455 65L495 308H240L199 65L254 6L253 0H-16L-15 6L60 65L150 597L93 656L95 662H365L364
656L288 597L249 365ZM457 853L563 700L558 694L445 745L298 694L294 700L457 853Z" />
<glyph unicode="&#x125;" glyph-name="hcircumflex" horiz-adv-x="485" d="M74 660L76 667Q86 670 109 677T162 693T223 710T279 726L190 290Q228 336 259 366T317 413T365 437T404 444Q416 444 427 441T447 429T459 408T459 377Q459 375 455 356T444 306T429
241T413 172T399 111T389 70L444 23V17Q407 10 358 3T248 -9Q251 2 258 32T273 99T291 177T309 252T322 308T327 330Q327 336 327 340T319 345Q312 345 298 336T264 312T223 275T178 230L132 0H9L135 617L74 660ZM359 894L465 741L460 735L347 786L200 735L196
741L359 894Z" />
<glyph unicode="&#x126;" glyph-name="Hbar" horiz-adv-x="705" d="M55 465L64 516H739L730 465H55ZM249 365H505L544 597L488 656L489 662H759L758 656L682 597L593 65L648 6L647 0H378L379 6L455 65L495 308H240L199 65L254 6L253 0H-16L-15 6L60 65L150 597L93
656L95 662H365L364 656L288 597L249 365Z" />
<glyph unicode="&#x127;" glyph-name="hbar" horiz-adv-x="485" d="M357 514H45L55 561H368L357 514ZM74 660L76 667Q86 670 109 677T162 693T223 710T279 726L190 290Q228 336 259 366T317 413T365 437T404 444Q416 444 427 441T447 429T459 408T459 377Q459
375 455 356T444 306T429 241T413 172T399 111T389 70L444 23V17Q407 10 358 3T248 -9Q251 2 258 32T273 99T291 177T309 252T322 308T327 330Q327 336 327 340T319 345Q312 345 298 336T264 312T223 275T178 230L132 0H9L135 617L74 660Z" />
<glyph unicode="&#x128;" glyph-name="Itilde" horiz-adv-x="311" d="M-16 0L-15 6L60 65L150 597L94 656L95 662H365L364 656L288 597L199 65L253 6L252 0H-16ZM461 821Q470 821 485 818T517 810T549 802T574 798Q588 798 610 813T650 848L657 845Q640 788 613
752T560 716Q549 716 533 719T501 727T471 735T448 739Q441 739 431 735T410 723T388 707T368 688L362 691Q371 717 383 740T408 782T435 810T461 821Z" />
<glyph unicode="&#x129;" glyph-name="itilde" horiz-adv-x="250" d="M88 340L36 382L38 388Q48 392 70 399T120 415T177 432T231 447L157 70L213 23V17Q175 10 127 3T18 -9L88 340ZM398 623Q407 623 421 619T450 610T479 600T503 596Q514 596 534 613T573 654L580
651Q572 621 562 596T539 553T515 524T491 514Q480 514 466 518T437 527T409 537T387 541Q373 541 353 524T313 483L306 485Q315 514 326 539T350 583T375 612T398 623Z" />
<glyph unicode="&#x12a;" glyph-name="Imacron" horiz-adv-x="311" d="M-16 0L-15 6L60 65L150 597L94 656L95 662H365L364 656L288 597L199 65L253 6L252 0H-16ZM632 785L618 713H362L377 785H632Z" />
<glyph unicode="&#x12b;" glyph-name="imacron" horiz-adv-x="250" d="M88 340L36 382L38 388Q48 392 70 399T120 415T177 432T231 447L157 70L213 23V17Q175 10 127 3T18 -9L88 340ZM335 590H556L541 519H320L335 590Z" />
<glyph unicode="&#x12c;" glyph-name="Ibreve" horiz-adv-x="311" d="M-16 0L-15 6L60 65L150 597L94 656L95 662H365L364 656L288 597L199 65L253 6L252 0H-16ZM624 835Q614 776 582 738T492 700Q461 700 442 713T412 747T399 790T399 835L406 836Q414 815 434
797T498 779Q539 779 569 797T617 836L624 835Z" />
<glyph unicode="&#x12d;" glyph-name="ibreve" horiz-adv-x="250" d="M88 340L36 382L38 388Q48 392 70 399T120 415T177 432T231 447L157 70L213 23V17Q175 10 127 3T18 -9L88 340ZM553 639Q545 574 514 536T430 497Q401 497 383 510T355 544T343 590T346 639L354
640Q361 614 379 596T436 577Q471 577 499 595T545 640L553 639Z" />
<glyph unicode="&#x12e;" glyph-name="Iogonek" horiz-adv-x="311" d="M93 -254Q51 -254 26 -232T1 -175Q1 -148 14 -123T49 -75T98 -33T151 0H182Q175 -9 164 -24T142 -57T123 -95T115 -136Q115 -154 125 -167T158 -180Q184 -180 205 -171T238 -154L243 -158Q238
-168 227 -184T198 -216T154 -243T93 -254ZM-16 0L-15 6L60 65L150 597L94 656L95 662H365L364 656L288 597L199 65L253 6L252 0H-16Z" />
<glyph unicode="&#x12f;" glyph-name="iogonek" horiz-adv-x="250" d="M188 637Q217 637 236 618T255 572Q255 545 236 526T188 507Q161 507 142 526T123 572Q123 599 142 618T188 637ZM-50 -254Q-92 -254 -116 -232T-141 -175Q-141 -148 -127 -123T-89 -75T-38
-33T20 0L88 340L36 382L38 388Q48 392 70 399T120 415T177 432T231 447L157 70L213 23V17Q179 11 137 5T43 -7Q32 -19 20 -34T-3 -67T-20 -101T-27 -137Q-27 -154 -17 -167T16 -180Q42 -180 63 -171T96 -154L101 -158Q96 -168 85 -184T56 -216T11 -243T-50 -254Z"
/>
<glyph unicode="&#x130;" glyph-name="Idotaccent" horiz-adv-x="311" d="M-16 0L-15 6L60 65L150 597L94 656L95 662H365L364 656L288 597L199 65L253 6L252 0H-16ZM494 832Q523 832 542 813T562 767Q562 741 543 722T494 702Q467 702 449 721T430 767Q430 794
448 813T494 832Z" />
<glyph unicode="&#x131;" glyph-name="dotlessi" horiz-adv-x="250" d="M88 340L36 382L38 388Q48 392 70 399T120 415T177 432T231 447L157 70L213 23V17Q175 10 127 3T18 -9L88 340Z" />
<glyph unicode="&#x132;" glyph-name="IJ" horiz-adv-x="615" d="M-16 0L-15 6L60 65L150 597L94 656L95 662H365L364 656L288 597L199 65L253 6L252 0H-16ZM512 103Q507 71 490 32T440 -50T361 -135T250 -217L241 -209Q262 -181 282 -147T321 -69T355 31T383
158L457 597L400 656L401 662H672L671 656L594 597L512 103Z" />
<glyph unicode="&#x133;" glyph-name="ij" horiz-adv-x="487" d="M88 340L36 382L38 388Q48 392 70 399T120 415T177 432T231 447L157 70L213 23V17Q175 10 127 3T18 -9L88 340ZM188 637Q217 637 236 618T255 572Q255 545 236 526T188 507Q161 507 142 526T123
572Q123 599 142 618T188 637ZM394 24Q388 -6 369 -41T322 -112T257 -184T179 -249L172 -245Q200 -190 229 -120T273 30L336 340L284 382L285 388Q295 392 317 399T367 415T425 432T479 447L394 24ZM435 637Q464 637 483 618T503 572Q503 545 484 527T435 508Q408
508 390 526T371 572Q371 599 389 618T435 637Z" />
<glyph unicode="&#x134;" glyph-name="Jcircumflex" horiz-adv-x="304" d="M511 853L617 700L612 694L499 745L352 694L348 700L511 853ZM202 103Q197 71 180 32T130 -50T51 -135T-60 -217L-69 -209Q-48 -181 -28 -147T11 -69T45 31T73 158L147 597L90 656L91
662H362L361 656L284 597L202 103Z" />
<glyph unicode="&#x135;" glyph-name="jcircumflex" horiz-adv-x="238" d="M145 24Q139 -6 120 -41T73 -112T7 -184T-70 -249L-77 -245Q-49 -190 -20 -120T24 30L86 340L35 382L36 388Q46 392 68 399T118 415T176 432T230 447L145 24ZM458 713L524 481L516 478L437
571L317 478L311 483L458 713Z" />
<glyph unicode="&#x136;" glyph-name="Kcommaaccent" horiz-adv-x="641" d="M347 -121Q347 -162 315 -202T227 -266L215 -261Q235 -238 254 -209T283 -157Q258 -158 243 -145T228 -109Q228 -86 243 -71T283 -56Q310 -56 328 -73T347 -121ZM-16 0V6L60 65L150 597L94
656L95 662H366L365 656L288 597L199 65L254 6L253 0H-16ZM326 0L327 6L404 65L284 324H255L499 597L444 656L445 662H673L672 656L577 598L399 402L552 65L606 6L605 0H326Z" />
<glyph unicode="&#x137;" glyph-name="kcommaaccent" horiz-adv-x="430" d="M250 -121Q250 -162 218 -202T130 -266L118 -261Q138 -238 157 -209T186 -157Q161 -158 146 -145T131 -109Q131 -86 146 -71T186 -56Q213 -56 231 -73T250 -121ZM134 618L73 660L75 667Q85
670 108 677T161 693T222 710T277 726L133 0H9L134 618ZM188 204Q227 242 249 268T282 311T296 339T299 355Q299 369 290 380T276 397L279 403L396 446Q403 438 412 422T422 389Q422 377 418 365T399 337T359 300T288 247Q322 176 343 133T377 63T399 23T414 -2L413
-7Q376 -6 351 -5T307 2T275 19T249 53T222 110T187 197L188 204Z" />
<glyph unicode="&#x139;" glyph-name="Lacute" horiz-adv-x="525" d="M388 704L385 712L589 849L630 744L388 704ZM197 57H352L484 206H490L455 0H-17L-16 6L60 65L150 597L94 656L95 662H364L363 656L286 597L197 57Z" />
<glyph unicode="&#x13a;" glyph-name="lacute" horiz-adv-x="246" d="M360 731L357 739L561 876L602 771L360 731ZM137 617L77 660L78 667Q88 671 112 678T165 693T225 710T281 726L151 70L206 23V17Q132 3 11 -9L137 617Z" />
<glyph unicode="&#x13b;" glyph-name="Lcommaaccent" horiz-adv-x="525" d="M292 -121Q292 -162 260 -202T172 -266L160 -261Q180 -238 199 -209T228 -157Q203 -158 188 -145T173 -109Q173 -86 188 -71T228 -56Q255 -56 273 -73T292 -121ZM197 57H352L484 206H490L455
0H-17L-16 6L60 65L150 597L94 656L95 662H364L363 656L286 597L197 57Z" />
<glyph unicode="&#x13c;" glyph-name="lcommaaccent" horiz-adv-x="246" d="M381 -121Q381 -162 349 -202T261 -266L249 -261Q269 -238 288 -209T317 -157Q292 -158 277 -145T262 -109Q262 -86 277 -71T317 -56Q344 -56 362 -73T381 -121ZM137 617L77 660L78 667Q88
671 112 678T165 693T225 710T281 726L151 70L206 23V17Q132 3 11 -9L137 617Z" />
<glyph unicode="&#x13d;" glyph-name="Lcaron" horiz-adv-x="525" d="M354 499L414 715H512L363 499H354ZM197 57H352L484 206H490L455 0H-17L-16 6L60 65L150 597L94 656L95 662H364L363 656L286 597L197 57Z" />
<glyph unicode="&#x13e;" glyph-name="lcaron" horiz-adv-x="246" d="M275 499L335 715H433L284 499H275ZM137 617L77 660L78 667Q88 671 112 678T165 693T225 710T281 726L151 70L206 23V17Q132 3 11 -9L137 617Z" />
<glyph unicode="&#x13f;" glyph-name="Ldot" horiz-adv-x="525" d="M462 430Q492 430 511 411T530 363Q530 334 511 315T462 295Q431 295 412 314T393 363Q393 392 412 411T462 430ZM197 57H352L484 206H490L455 0H-17L-16 6L60 65L150 597L94 656L95 662H364L363
656L286 597L197 57Z" />
<glyph unicode="&#x140;" glyph-name="ldot" horiz-adv-x="379" d="M333 404Q363 404 382 385T401 337Q401 308 382 289T333 269Q302 269 283 288T264 337Q264 366 283 385T333 404ZM137 617L77 660L78 667Q88 671 112 678T165 693T225 710T281 726L151 70L206
23V17Q132 3 11 -9L137 617Z" />
<glyph unicode="&#x141;" glyph-name="Lslash" horiz-adv-x="525" d="M197 57H352L484 206H490L455 0H-17L-16 6L60 65L83 205L-3 159L7 220L94 267L150 597L94 656L95 662H364L363 656L286 597L245 348L426 446L416 381L234 285L197 57Z" />
<glyph unicode="&#x142;" glyph-name="lslash" horiz-adv-x="251" d="M139 617L79 660L80 667Q90 671 114 678T167 693T227 710T283 726L219 405L289 446L276 381L207 341L153 70L208 23V17Q134 3 13 -9L67 261L-1 222L11 284L80 324L139 617Z" />
<glyph unicode="&#x143;" glyph-name="Nacute" horiz-adv-x="670" d="M316 704L313 712L517 849L558 744L316 704ZM495 0L198 485L128 66L209 6L208 0H-19L-18 6L60 66L144 569Q123 602 110 621T86 656L87 662H252L520 218L584 596L509 656L510 662H731L730 656L651
596L551 0H495Z" />
<glyph unicode="&#x144;" glyph-name="nacute" horiz-adv-x="493" d="M262 485L255 490L372 713L457 641L262 485ZM18 0L88 341L36 382V388Q47 392 69 399T119 415T176 432T231 447L199 288Q237 334 268 364T325 412T372 437T412 444Q424 444 435 441T455 430T467
409T467 377Q467 375 463 356T452 306T437 241T422 172T408 111T398 70L452 23V17Q417 10 367 4T257 -9Q260 5 267 36T282 104T300 182T316 255T329 309T334 332Q337 345 327 345Q321 345 307 336T273 311T232 274T187 228L141 0H18Z" />
<glyph unicode="&#x145;" glyph-name="Ncommaaccent" horiz-adv-x="670" d="M351 -121Q351 -162 319 -202T231 -266L219 -261Q239 -238 258 -209T287 -157Q262 -158 247 -145T232 -109Q232 -86 247 -71T287 -56Q314 -56 332 -73T351 -121ZM495 0L198 485L128 66L209
6L208 0H-19L-18 6L60 66L144 569Q123 602 110 621T86 656L87 662H252L520 218L584 596L509 656L510 662H731L730 656L651 596L551 0H495Z" />
<glyph unicode="&#x146;" glyph-name="ncommaaccent" horiz-adv-x="493" d="M239 -121Q239 -162 207 -202T119 -266L107 -261Q127 -238 146 -209T175 -157Q150 -158 135 -145T120 -109Q120 -86 135 -71T175 -56Q202 -56 220 -73T239 -121ZM18 0L88 341L36 382V388Q47
392 69 399T119 415T176 432T231 447L199 288Q237 334 268 364T325 412T372 437T412 444Q424 444 435 441T455 430T467 409T467 377Q467 375 463 356T452 306T437 241T422 172T408 111T398 70L452 23V17Q417 10 367 4T257 -9Q260 5 267 36T282 104T300 182T316
255T329 309T334 332Q337 345 327 345Q321 345 307 336T273 311T232 274T187 228L141 0H18Z" />
<glyph unicode="&#x147;" glyph-name="Ncaron" horiz-adv-x="670" d="M414 691L307 844L312 850L426 799L573 850L577 844L414 691ZM495 0L198 485L128 66L209 6L208 0H-19L-18 6L60 66L144 569Q123 602 110 621T86 656L87 662H252L520 218L584 596L509 656L510
662H731L730 656L651 596L551 0H495Z" />
<glyph unicode="&#x148;" glyph-name="ncaron" horiz-adv-x="493" d="M296 477L230 709L237 712L317 619L436 712L443 707L296 477ZM18 0L88 341L36 382V388Q47 392 69 399T119 415T176 432T231 447L199 288Q237 334 268 364T325 412T372 437T412 444Q424 444
435 441T455 430T467 409T467 377Q467 375 463 356T452 306T437 241T422 172T408 111T398 70L452 23V17Q417 10 367 4T257 -9Q260 5 267 36T282 104T300 182T316 255T329 309T334 332Q337 345 327 345Q321 345 307 336T273 311T232 274T187 228L141 0H18Z" />
<glyph unicode="&#x149;" glyph-name="napostrophe" horiz-adv-x="538" d="M293 444Q323 478 346 515T377 581H374Q351 581 334 595T316 635Q316 661 333 677T378 693Q410 693 430 671T450 614Q450 588 440 562T410 513T365 470T306 438L293 444V444ZM63 0L133
341L81 382V388Q92 392 114 399T164 415T221 432T276 447L244 288Q282 334 313 364T370 412T417 437T457 444Q469 444 480 441T500 430T512 409T512 377Q512 375 508 356T497 306T482 241T467 172T453 111T443 70L497 23V17Q462 10 412 4T302 -9Q305 5 312 36T327
104T345 182T361 255T374 309T379 332Q382 345 372 345Q366 345 352 336T318 311T277 274T232 228L186 0H63Z" />
<glyph unicode="&#x14a;" glyph-name="Eng" horiz-adv-x="670" d="M-20 0L-18 6L60 66L143 569Q122 602 109 621T85 656L86 662H251L467 305Q487 270 499 249T518 209L583 596L508 656L509 662H730L729 656L650 596L567 96Q562 67 548 29T506 -51T437 -135T336
-217L327 -209Q347 -181 367 -148T402 -83T428 -20T438 35Q438 51 434 68T422 105T400 149T368 205Q365 210 355 227T329 269T296 322T260 381T225 437T196 484L127 66L208 6L207 0H-20Z" />
<glyph unicode="&#x14b;" glyph-name="eng" horiz-adv-x="483" d="M18 0L88 341L36 382V388Q47 392 69 399T119 415T176 432T231 447L199 288Q237 334 268 364T325 412T372 437T412 444Q424 444 435 441T455 430T467 409T467 377Q467 375 462 352T449 294T432
218T413 137T397 68T387 24Q381 -5 362 -40T314 -112T249 -184T172 -249L165 -245Q193 -190 220 -119T266 30Q269 44 275 72T289 133T304 202T319 265T330 312T334 332Q337 345 327 345Q321 345 307 336T273 311T232 274T187 228L141 0H18Z" />
<glyph unicode="&#x14c;" glyph-name="Omacron" horiz-adv-x="686" d="M564 785L550 713H294L309 785H564ZM408 614Q371 614 334 588T266 516T216 404T197 261Q197 210 208 171T236 105T276 65T322 51Q359 51 396 77T464 150T512 262T531 406Q531 456 522 495T495
560T456 600T408 614ZM48 269Q48 356 78 430T159 557T275 641T409 672Q464 672 513 653T600 597T658 511T680 398Q680 310 650 235T571 106T456 21T322 -10Q264 -10 214 9T127 65T69 153T48 269Z" />
<glyph unicode="&#x14d;" glyph-name="omacron" horiz-adv-x="447" d="M177 590H398L383 519H162L177 590ZM189 -12Q156 -12 125 -1T70 32T31 86T16 160Q16 221 37 273T94 363T173 422T262 444Q293 444 323 433T377 401T415 349T430 278Q430 213 409 160T353 68T275
9T189 -12ZM192 36Q210 36 229 60T265 122T292 208T303 303Q303 354 289 375T259 396Q239 396 219 374T182 315T155 233T145 141Q145 90 158 63T192 36Z" />
<glyph unicode="&#x14e;" glyph-name="Obreve" horiz-adv-x="686" d="M553 835Q543 776 511 738T421 700Q390 700 371 713T341 747T328 790T328 835L335 836Q343 815 363 797T427 779Q468 779 498 797T546 836L553 835ZM408 614Q371 614 334 588T266 516T216 404T197
261Q197 210 208 171T236 105T276 65T322 51Q359 51 396 77T464 150T512 262T531 406Q531 456 522 495T495 560T456 600T408 614ZM48 269Q48 356 78 430T159 557T275 641T409 672Q464 672 513 653T600 597T658 511T680 398Q680 310 650 235T571 106T456 21T322
-10Q264 -10 214 9T127 65T69 153T48 269Z" />
<glyph unicode="&#x14f;" glyph-name="obreve" horiz-adv-x="447" d="M189 -12Q156 -12 125 -1T70 32T31 86T16 160Q16 221 37 273T94 363T173 422T262 444Q293 444 323 433T377 401T415 349T430 278Q430 213 409 160T353 68T275 9T189 -12ZM192 36Q210 36 229
60T265 122T292 208T303 303Q303 354 289 375T259 396Q239 396 219 374T182 315T155 233T145 141Q145 90 158 63T192 36ZM393 639Q385 574 354 536T270 497Q241 497 223 510T195 544T183 590T186 639L194 640Q201 614 219 596T276 577Q311 577 339 595T385 640L393
639Z" />
<glyph unicode="&#x150;" glyph-name="Ohungarumlaut" horiz-adv-x="686" d="M468 702L463 710L607 870L668 789L468 702ZM295 702L289 710L433 870L495 789L295 702ZM408 614Q371 614 334 588T266 516T216 404T197 261Q197 210 208 171T236 105T276 65T322 51Q359
51 396 77T464 150T512 262T531 406Q531 456 522 495T495 560T456 600T408 614ZM48 269Q48 356 78 430T159 557T275 641T409 672Q464 672 513 653T600 597T658 511T680 398Q680 310 650 235T571 106T456 21T322 -10Q264 -10 214 9T127 65T69 153T48 269Z" />
<glyph unicode="&#x151;" glyph-name="ohungarumlaut" horiz-adv-x="447" d="M310 487L388 709L473 658L317 484L310 487ZM180 484L173 487L251 709L335 658L180 484ZM189 -12Q156 -12 125 -1T70 32T31 86T16 160Q16 221 37 273T94 363T173 422T262 444Q293 444
323 433T377 401T415 349T430 278Q430 213 409 160T353 68T275 9T189 -12ZM192 36Q210 36 229 60T265 122T292 208T303 303Q303 354 289 375T259 396Q239 396 219 374T182 315T155 233T145 141Q145 90 158 63T192 36Z" />
<glyph unicode="&#x152;" glyph-name="OE" horiz-adv-x="822" d="M354 0Q292 0 237 16T140 66T74 151T49 272Q49 351 80 422T164 546T290 631T447 662H839L815 514H809L750 606H621L582 374H715L784 446H790L755 245H749L707 319H572L528 57H671L771 174H778L749
0H354ZM391 60L482 604H448Q397 604 352 578T273 507T218 400T198 268Q198 215 210 176T243 111T294 73T358 60H391Z" />
<glyph unicode="&#x153;" glyph-name="oe" horiz-adv-x="658" d="M416 -10Q382 -10 359 10T324 58Q300 27 264 8T186 -12Q154 -12 124 -1T69 32T31 85T16 159Q16 221 38 273T95 363T174 422T262 444Q301 444 337 426T396 373Q434 406 479 425T569 444Q621 444
643 428T665 392Q665 381 656 362T622 321T550 281T428 248Q423 228 421 206T418 160Q418 117 432 95T468 73Q486 73 506 81T544 101T580 129T610 157L624 145Q578 64 524 27T416 -10ZM190 36Q208 36 227 60T262 122T289 209T300 304Q300 356 287 376T259 396Q239
396 219 374T183 315T156 233T145 140Q145 90 158 63T190 36ZM543 405Q533 405 519 397T491 373T462 334T438 281Q474 291 498 305T536 334T557 362T563 386Q563 405 543 405Z" />
<glyph unicode="&#x154;" glyph-name="Racute" horiz-adv-x="593" d="M248 704L245 712L449 849L490 744L248 704ZM-16 6L60 65L150 597L94 656L95 662H335Q378 662 417 654T485 629T532 585T549 520Q549 487 537 460T506 411T462 373T412 347L467 191Q495 112
522 65T570 -7L569 -13Q501 -13 462 -2T399 29T363 78T338 145Q333 161 327 182T314 227T301 273T288 317H240L198 65L258 6L257 0H-16V6ZM288 611L248 367H340Q348 367 361 376T387 404T409 447T418 505Q418 561 388 586T319 611H288Z" />
<glyph unicode="&#x155;" glyph-name="racute" horiz-adv-x="366" d="M222 485L215 490L332 713L417 641L222 485ZM18 0L87 340L35 382L36 388Q46 392 68 399T119 415T176 432T231 447L199 289Q245 369 276 407T324 446Q340 446 360 439T389 428L337 292Q332 294
325 298T310 305T294 311T280 314Q266 314 245 297T188 236L140 0H18Z" />
<glyph unicode="&#x156;" glyph-name="Rcommaaccent" horiz-adv-x="593" d="M332 -121Q332 -162 300 -202T212 -266L200 -261Q220 -238 239 -209T268 -157Q243 -158 228 -145T213 -109Q213 -86 228 -71T268 -56Q295 -56 313 -73T332 -121ZM-16 6L60 65L150 597L94
656L95 662H335Q378 662 417 654T485 629T532 585T549 520Q549 487 537 460T506 411T462 373T412 347L467 191Q495 112 522 65T570 -7L569 -13Q501 -13 462 -2T399 29T363 78T338 145Q333 161 327 182T314 227T301 273T288 317H240L198 65L258 6L257 0H-16V6ZM288
611L248 367H340Q348 367 361 376T387 404T409 447T418 505Q418 561 388 586T319 611H288Z" />
<glyph unicode="&#x157;" glyph-name="rcommaaccent" horiz-adv-x="366" d="M374 -121Q374 -162 342 -202T254 -266L242 -261Q262 -238 281 -209T310 -157Q285 -158 270 -145T255 -109Q255 -86 270 -71T310 -56Q337 -56 355 -73T374 -121ZM18 0L87 340L35 382L36
388Q46 392 68 399T119 415T176 432T231 447L199 289Q245 369 276 407T324 446Q340 446 360 439T389 428L337 292Q332 294 325 298T310 305T294 311T280 314Q266 314 245 297T188 236L140 0H18Z" />
<glyph unicode="&#x158;" glyph-name="Rcaron" horiz-adv-x="593" d="M348 691L241 844L246 850L360 799L507 850L511 844L348 691ZM-16 6L60 65L150 597L94 656L95 662H335Q378 662 417 654T485 629T532 585T549 520Q549 487 537 460T506 411T462 373T412 347L467
191Q495 112 522 65T570 -7L569 -13Q501 -13 462 -2T399 29T363 78T338 145Q333 161 327 182T314 227T301 273T288 317H240L198 65L258 6L257 0H-16V6ZM288 611L248 367H340Q348 367 361 376T387 404T409 447T418 505Q418 561 388 586T319 611H288Z" />
<glyph unicode="&#x159;" glyph-name="rcaron" horiz-adv-x="366" d="M251 477L185 709L192 712L272 619L391 712L398 707L251 477ZM18 0L87 340L35 382L36 388Q46 392 68 399T119 415T176 432T231 447L199 289Q245 369 276 407T324 446Q340 446 360 439T389 428L337
292Q332 294 325 298T310 305T294 311T280 314Q266 314 245 297T188 236L140 0H18Z" />
<glyph unicode="&#x15a;" glyph-name="Sacute" horiz-adv-x="438" d="M295 672Q339 672 379 666T440 654L412 498H404Q369 566 340 591T285 617Q263 617 244 600T224 552Q224 523 243 489T302 396Q331 352 350 320T380 262T396 215T401 175Q401 134 385 100T342
42T276 4T192 -10Q159 -10 131 -5T79 9T39 27T12 43Q13 58 16 82T23 133T33 190T45 247H53Q73 145 112 99T195 52Q225 52 248 76T271 137Q271 153 268 168T256 202T233 244T197 299Q167 342 148 373T119 428T104 472T100 513Q100 552 116 581T160 631T222 661T295
672ZM185 704L182 712L386 849L427 744L185 704Z" />
<glyph unicode="&#x15b;" glyph-name="sacute" horiz-adv-x="318" d="M422 485L415 490L532 713L617 641L422 485ZM205 445Q221 445 238 443T270 437T297 431T318 426L283 318H278Q246 369 227 384T196 400Q185 400 176 392T167 366Q167 354 172 341T190 308Q204
284 223 255T258 198Q269 177 274 156T279 117Q279 98 271 76T245 34T196 3T123 -10Q89 -10 54 -1T-1 17Q2 47 8 88T22 168H28Q43 129 56 105T82 66T105 46T126 40Q145 40 155 52T166 81Q166 93 162 104T147 133Q136 153 119 182T87 234Q70 262 64 283T58 324Q58
345 67 367T94 406T140 434T205 445Z" />
<glyph unicode="&#x15c;" glyph-name="Scircumflex" horiz-adv-x="438" d="M321 853L427 700L422 694L309 745L162 694L158 700L321 853ZM295 672Q339 672 379 666T440 654L412 498H404Q369 566 340 591T285 617Q263 617 244 600T224 552Q224 523 243 489T302
396Q331 352 350 320T380 262T396 215T401 175Q401 134 385 100T342 42T276 4T192 -10Q159 -10 131 -5T79 9T39 27T12 43Q13 58 16 82T23 133T33 190T45 247H53Q73 145 112 99T195 52Q225 52 248 76T271 137Q271 153 268 168T256 202T233 244T197 299Q167 342 148
373T119 428T104 472T100 513Q100 552 116 581T160 631T222 661T295 672Z" />
<glyph unicode="&#x15d;" glyph-name="scircumflex" horiz-adv-x="318" d="M505 713L571 481L563 478L484 571L364 478L358 483L505 713ZM205 445Q221 445 238 443T270 437T297 431T318 426L283 318H278Q246 369 227 384T196 400Q185 400 176 392T167 366Q167
354 172 341T190 308Q204 284 223 255T258 198Q269 177 274 156T279 117Q279 98 271 76T245 34T196 3T123 -10Q89 -10 54 -1T-1 17Q2 47 8 88T22 168H28Q43 129 56 105T82 66T105 46T126 40Q145 40 155 52T166 81Q166 93 162 104T147 133Q136 153 119 182T87 234Q70
262 64 283T58 324Q58 345 67 367T94 406T140 434T205 445Z" />
<glyph unicode="&#x15e;" glyph-name="Scedilla" horiz-adv-x="438" d="M295 672Q339 672 379 666T440 654L412 498H404Q369 566 340 591T285 617Q263 617 244 600T224 552Q224 523 243 489T302 396Q331 352 350 320T380 262T396 215T401 175Q401 134 385 100T342
42T276 4T192 -10Q159 -10 131 -5T79 9T39 27T12 43Q13 58 16 82T23 133T33 190T45 247H53Q73 145 112 99T195 52Q225 52 248 76T271 137Q271 153 268 168T256 202T233 244T197 299Q167 342 148 373T119 428T104 472T100 513Q100 552 116 581T160 631T222 661T295
672ZM192 0L157 -57Q185 -69 207 -90T229 -145Q229 -164 218 -183T182 -218T119 -244T25 -257L24 -249Q42 -241 61 -231T97 -209T124 -186T135 -162Q135 -154 130 -147T119 -133T105 -123T91 -116L90 -113Q108 -82 123 -57Q136 -36 146 -19T157 0H192Z" />
<glyph unicode="&#x15f;" glyph-name="scedilla" horiz-adv-x="318" d="M205 445Q221 445 238 443T270 437T297 431T318 426L283 318H278Q246 369 227 384T196 400Q185 400 176 392T167 366Q167 354 172 341T190 308Q204 284 223 255T258 198Q269 177 274 156T279
117Q279 98 271 76T245 34T196 3T123 -10Q89 -10 54 -1T-1 17Q2 47 8 88T22 168H28Q43 129 56 105T82 66T105 46T126 40Q145 40 155 52T166 81Q166 93 162 104T147 133Q136 153 119 182T87 234Q70 262 64 283T58 324Q58 345 67 367T94 406T140 434T205 445ZM395
0L360 -57Q388 -69 410 -90T432 -145Q432 -164 421 -183T385 -218T322 -244T228 -257L227 -249Q245 -241 264 -231T300 -209T327 -186T338 -162Q338 -154 333 -147T322 -133T308 -123T294 -116L293 -113Q311 -82 326 -57Q339 -36 349 -19T360 0H395Z" />
<glyph unicode="&#x160;" glyph-name="Scaron" horiz-adv-x="438" d="M289 691L182 844L187 850L301 799L448 850L452 844L289 691ZM295 672Q339 672 379 666T440 654L412 498H404Q369 566 340 591T285 617Q263 617 244 600T224 552Q224 523 243 489T302 396Q331
352 350 320T380 262T396 215T401 175Q401 134 385 100T342 42T276 4T192 -10Q159 -10 131 -5T79 9T39 27T12 43Q13 58 16 82T23 133T33 190T45 247H53Q73 145 112 99T195 52Q225 52 248 76T271 137Q271 153 268 168T256 202T233 244T197 299Q167 342 148 373T119
428T104 472T100 513Q100 552 116 581T160 631T222 661T295 672Z" />
<glyph unicode="&#x161;" glyph-name="scaron" horiz-adv-x="318" d="M458 477L392 709L399 712L479 619L598 712L605 707L458 477ZM205 445Q221 445 238 443T270 437T297 431T318 426L283 318H278Q246 369 227 384T196 400Q185 400 176 392T167 366Q167 354 172
341T190 308Q204 284 223 255T258 198Q269 177 274 156T279 117Q279 98 271 76T245 34T196 3T123 -10Q89 -10 54 -1T-1 17Q2 47 8 88T22 168H28Q43 129 56 105T82 66T105 46T126 40Q145 40 155 52T166 81Q166 93 162 104T147 133Q136 153 119 182T87 234Q70 262
64 283T58 324Q58 345 67 367T94 406T140 434T205 445Z" />
<glyph unicode="&#x162;" glyph-name="Tcommaaccent" horiz-adv-x="607" d="M312 -121Q312 -162 280 -202T192 -266L180 -261Q200 -238 219 -209T248 -157Q223 -158 208 -145T193 -109Q193 -86 208 -71T248 -56Q275 -56 293 -73T312 -121ZM649 662L622 497H617L550
607H439L348 65L414 6L413 0H120L121 6L209 65L300 607H193L86 497H81L109 662H649Z" />
<glyph unicode="&#x163;" glyph-name="tcommaaccent" horiz-adv-x="340" d="M404 -121Q404 -162 372 -202T284 -266L272 -261Q292 -238 311 -209T340 -157Q315 -158 300 -145T285 -109Q285 -86 300 -71T340 -56Q367 -56 385 -73T404 -121ZM217 369L162 110Q160
101 158 93T156 81Q156 69 167 69Q186 69 216 90T290 153L303 143Q289 118 270 91T226 42T173 5T110 -10Q66 -10 47 7T27 45Q27 54 30 68T37 99L93 369H32V374L245 521L226 430H378L328 369H217Z" />
<glyph unicode="&#x164;" glyph-name="Tcaron" horiz-adv-x="607" d="M381 691L274 844L279 850L393 799L540 850L544 844L381 691ZM649 662L622 497H617L550 607H439L348 65L414 6L413 0H120L121 6L209 65L300 607H193L86 497H81L109 662H649Z" />
<glyph unicode="&#x165;" glyph-name="tcaron" horiz-adv-x="340" d="M278 499L338 715H436L287 499H278ZM217 369L162 110Q160 101 158 93T156 81Q156 69 167 69Q186 69 216 90T290 153L303 143Q289 118 270 91T226 42T173 5T110 -10Q66 -10 47 7T27 45Q27 54
30 68T37 99L93 369H32V374L245 521L226 430H378L328 369H217Z" />
<glyph unicode="&#x166;" glyph-name="Tbar" horiz-adv-x="607" d="M121 336L130 388H535L526 336H121ZM649 662L622 497H617L550 607H439L348 65L414 6L413 0H120L121 6L209 65L300 607H193L86 497H81L109 662H649Z" />
<glyph unicode="&#x167;" glyph-name="tbar" horiz-adv-x="342" d="M6 232L17 282H319L307 232H6ZM217 369L162 110Q160 101 158 93T156 81Q156 69 167 69Q186 69 216 90T290 153L303 143Q289 118 270 91T226 42T173 5T110 -10Q66 -10 47 7T27 45Q27 54 30 68T37
99L93 369H32V374L245 521L226 430H378L328 369H217Z" />
<glyph unicode="&#x168;" glyph-name="Utilde" horiz-adv-x="656" d="M579 208Q573 171 556 132T509 62T433 10T324 -10Q256 -10 206 9T125 60T83 135T79 229L140 597L84 656L85 662H366L365 656L278 597L216 223Q211 192 217 164T240 115T286 81T356 68Q392 68
419 80T466 112T498 160T515 217L578 597L513 656L514 662H721L720 656L644 597L579 208ZM403 821Q412 821 427 818T459 810T491 802T516 798Q530 798 552 813T592 848L599 845Q582 788 555 752T502 716Q491 716 475 719T443 727T413 735T390 739Q383 739 373 735T352
723T330 707T310 688L304 691Q313 717 325 740T350 782T377 810T403 821Z" />
<glyph unicode="&#x169;" glyph-name="utilde" horiz-adv-x="481" d="M286 152Q226 69 176 30T81 -10Q49 -10 35 4T21 32Q21 45 29 79L90 341L38 384V390Q49 394 72 401T124 416T183 434T238 449Q235 435 228 404T211 334T192 254T174 178T161 122T156 99Q154
90 164 90Q171 90 185 99T217 126T257 166T299 217L343 432H466L392 69L446 23V17Q373 3 254 -9L286 152ZM270 623Q279 623 293 619T322 610T351 600T375 596Q386 596 406 613T445 654L452 651Q444 621 434 596T411 553T387 524T363 514Q352 514 338 518T309 527T281
537T259 541Q245 541 225 524T185 483L178 485Q187 514 198 539T222 583T247 612T270 623Z" />
<glyph unicode="&#x16a;" glyph-name="Umacron" horiz-adv-x="656" d="M579 208Q573 171 556 132T509 62T433 10T324 -10Q256 -10 206 9T125 60T83 135T79 229L140 597L84 656L85 662H366L365 656L278 597L216 223Q211 192 217 164T240 115T286 81T356 68Q392
68 419 80T466 112T498 160T515 217L578 597L513 656L514 662H721L720 656L644 597L579 208ZM572 785L558 713H302L317 785H572Z" />
<glyph unicode="&#x16b;" glyph-name="umacron" horiz-adv-x="481" d="M286 152Q226 69 176 30T81 -10Q49 -10 35 4T21 32Q21 45 29 79L90 341L38 384V390Q49 394 72 401T124 416T183 434T238 449Q235 435 228 404T211 334T192 254T174 178T161 122T156 99Q154
90 164 90Q171 90 185 99T217 126T257 166T299 217L343 432H466L392 69L446 23V17Q373 3 254 -9L286 152ZM194 590H415L400 519H179L194 590Z" />
<glyph unicode="&#x16c;" glyph-name="Ubreve" horiz-adv-x="656" d="M579 208Q573 171 556 132T509 62T433 10T324 -10Q256 -10 206 9T125 60T83 135T79 229L140 597L84 656L85 662H366L365 656L278 597L216 223Q211 192 217 164T240 115T286 81T356 68Q392 68
419 80T466 112T498 160T515 217L578 597L513 656L514 662H721L720 656L644 597L579 208ZM561 835Q551 776 519 738T429 700Q398 700 379 713T349 747T336 790T336 835L343 836Q351 815 371 797T435 779Q476 779 506 797T554 836L561 835Z" />
<glyph unicode="&#x16d;" glyph-name="ubreve" horiz-adv-x="481" d="M286 152Q226 69 176 30T81 -10Q49 -10 35 4T21 32Q21 45 29 79L90 341L38 384V390Q49 394 72 401T124 416T183 434T238 449Q235 435 228 404T211 334T192 254T174 178T161 122T156 99Q154
90 164 90Q171 90 185 99T217 126T257 166T299 217L343 432H466L392 69L446 23V17Q373 3 254 -9L286 152ZM415 639Q407 574 376 536T292 497Q263 497 245 510T217 544T205 590T208 639L216 640Q223 614 241 596T298 577Q333 577 361 595T407 640L415 639Z" />
<glyph unicode="&#x16e;" glyph-name="Uring" horiz-adv-x="656" d="M579 208Q573 171 556 132T509 62T433 10T324 -10Q256 -10 206 9T125 60T83 135T79 229L140 597L84 656L85 662H366L365 656L278 597L216 223Q211 192 217 164T240 115T286 81T356 68Q392 68
419 80T466 112T498 160T515 217L578 597L513 656L514 662H721L720 656L644 597L579 208ZM390 775Q390 755 403 740T438 725Q458 725 472 739T486 775Q486 795 472 810T438 826Q417 826 404 811T390 775ZM347 775Q347 794 354 810T374 839T403 858T438 865Q456
865 472 858T501 839T521 811T529 775Q529 756 522 740T502 712T473 693T438 686Q420 686 404 692T375 711T355 739T347 775Z" />
<glyph unicode="&#x16f;" glyph-name="uring" horiz-adv-x="481" d="M256 579Q256 559 269 544T304 529Q325 529 338 543T352 579Q352 599 339 614T304 630Q283 630 270 615T256 579ZM213 579Q213 598 220 614T241 643T270 662T304 669Q322 669 339 662T368 643T388
615T396 579Q396 541 369 516T304 490Q286 490 270 496T241 515T221 543T213 579ZM286 152Q226 69 176 30T81 -10Q49 -10 35 4T21 32Q21 45 29 79L90 341L38 384V390Q49 394 72 401T124 416T183 434T238 449Q235 435 228 404T211 334T192 254T174 178T161 122T156
99Q154 90 164 90Q171 90 185 99T217 126T257 166T299 217L343 432H466L392 69L446 23V17Q373 3 254 -9L286 152Z" />
<glyph unicode="&#x170;" glyph-name="Uhungarumlaut" horiz-adv-x="656" d="M463 702L458 710L602 870L663 789L463 702ZM290 702L284 710L428 870L490 789L290 702ZM579 208Q573 171 556 132T509 62T433 10T324 -10Q256 -10 206 9T125 60T83 135T79 229L140
597L84 656L85 662H366L365 656L278 597L216 223Q211 192 217 164T240 115T286 81T356 68Q392 68 419 80T466 112T498 160T515 217L578 597L513 656L514 662H721L720 656L644 597L579 208Z" />
<glyph unicode="&#x171;" glyph-name="uhungarumlaut" horiz-adv-x="481" d="M286 152Q226 69 176 30T81 -10Q49 -10 35 4T21 32Q21 45 29 79L90 341L38 384V390Q49 394 72 401T124 416T183 434T238 449Q235 435 228 404T211 334T192 254T174 178T161 122T156
99Q154 90 164 90Q171 90 185 99T217 126T257 166T299 217L343 432H466L392 69L446 23V17Q373 3 254 -9L286 152ZM337 487L415 709L500 658L344 484L337 487ZM207 484L200 487L278 709L362 658L207 484Z" />
<glyph unicode="&#x172;" glyph-name="Uogonek" horiz-adv-x="656" d="M239 -175Q239 -126 283 -82T400 -1Q365 -10 324 -10Q256 -10 206 9T125 60T83 135T79 229L140 597L84 656L85 662H366L365 656L278 597L216 223Q211 192 217 164T240 115T286 81T356 68Q392
68 419 80T466 112T498 160T515 217L578 597L513 656L514 662H721L720 656L644 597L579 208Q568 139 535 94T452 12Q432 -3 415 -21T383 -58T361 -98T353 -137Q353 -154 363 -167T396 -180Q422 -180 443 -171T476 -154L481 -158Q476 -168 465 -184T436 -216T392
-243T331 -254Q289 -254 264 -232T239 -175Z" />
<glyph unicode="&#x173;" glyph-name="uogonek" horiz-adv-x="481" d="M188 -254Q146 -254 121 -232T96 -175Q96 -147 111 -122T149 -74T201 -34T255 -2L286 152Q226 69 176 30T81 -10Q49 -10 35 4T21 32Q21 45 29 79L90 341L38 384V390Q49 394 72 401T124 416T183
434T238 449Q235 435 228 404T211 334T192 254T174 178T161 122T156 99Q154 90 164 90Q171 90 185 99T217 125T256 165T299 216L343 432H466L392 69L446 23V17Q415 11 374 5T284 -6Q273 -18 260 -33T236 -65T218 -101T211 -137Q211 -154 221 -167T254 -180Q280
-180 301 -171T334 -154L339 -158Q334 -168 323 -184T294 -216T249 -243T188 -254Z" />
<glyph unicode="&#x174;" glyph-name="Wcircumflex" horiz-adv-x="883" d="M588 853L694 700L689 694L576 745L429 694L425 700L588 853ZM126 597L79 656L80 662H325L324 656L265 597L346 211L451 398L404 597L357 656L358 662H583L582 656L532 597L560 470L626
597L596 656L597 662H744L743 656L687 597L577 394L619 211L815 597L776 656L777 662H953L952 656L884 597L577 -6H547L470 318L289 -6H259L126 597Z" />
<glyph unicode="&#x175;" glyph-name="wcircumflex" horiz-adv-x="570" d="M383 713L449 481L441 478L362 571L242 478L236 483L383 713ZM356 436Q365 379 371 302T379 150Q411 206 429 241T456 297T467 330T469 352Q469 369 460 380T443 398V403L558 441Q566
433 573 420T581 390Q581 372 571 347T530 278T444 163T301 -19H267Q267 6 267 36T268 99T268 162T268 222Q231 160 187 98T97 -19H63Q65 25 66 82T68 194T69 292T69 351L22 392L23 399Q32 402 52 408T95 421T143 435T187 447Q187 419 187 382T185 305T183 226T179
155Q196 187 212 218T246 284T281 355T321 436H356V436Z" />
<glyph unicode="&#x176;" glyph-name="Ycircumflex" horiz-adv-x="588" d="M456 656L457 662H656L655 656L586 597L389 331L345 68L401 6L400 0H129L130 6L207 68L248 316L127 597L78 656L79 662H351L350 656L273 597L361 387L511 593L456 656ZM418 853L524 700L519
694L406 745L259 694L255 700L418 853Z" />
<glyph unicode="&#x177;" glyph-name="ycircumflex" horiz-adv-x="398" d="M296 350Q296 364 287 376T269 396V401L381 440Q392 430 400 415T409 385Q409 365 397 340T359 276T292 183T194 51Q163 8 135 -36T84 -119T43 -193T17 -250L-118 -234V-228Q-57 -181
-3 -125T95 -14Q92 27 89 78T81 180T72 276T64 351L15 393L16 400Q26 403 44 409T85 421T130 435T171 447Q175 422 178 383T185 300T191 210T196 127Q229 185 249 224T279 288T293 327T296 350ZM537 713L603 481L595 478L516 571L396 478L390 483L537 713Z" />
<glyph unicode="&#x178;" glyph-name="Ydieresis" horiz-adv-x="588" d="M456 656L457 662H656L655 656L586 597L389 331L345 68L401 6L400 0H129L130 6L207 68L248 316L127 597L78 656L79 662H351L350 656L273 597L361 387L511 593L456 656ZM493 822Q520 822
538 805T557 761Q557 736 539 718T493 700Q468 700 451 718T434 761Q434 787 451 804T493 822ZM306 822Q332 822 349 805T367 761Q367 736 350 718T306 700Q280 700 263 718T245 761Q245 787 262 804T306 822Z" />
<glyph unicode="&#x179;" glyph-name="Zacute" horiz-adv-x="562" d="M256 704L253 712L457 849L498 744L256 704ZM172 59H403L519 193H526L492 0H-9L-7 9L405 608H211L105 494H99L127 662H590L589 654L172 59Z" />
<glyph unicode="&#x17a;" glyph-name="zacute" horiz-adv-x="365" d="M201 485L194 490L311 713L396 641L201 485ZM-16 14L253 344H204Q138 344 101 340T47 334L43 338L113 442L386 432L383 418L110 92H157Q191 92 217 93T265 97T305 102T340 109L343 105L263
-8L-18 0L-16 14Z" />
<glyph unicode="&#x17b;" glyph-name="Zdotaccent" horiz-adv-x="562" d="M172 59H403L519 193H526L492 0H-9L-7 9L405 608H211L105 494H99L127 662H590L589 654L172 59ZM366 832Q395 832 414 813T434 767Q434 741 415 722T366 702Q339 702 321 721T302 767Q302
794 320 813T366 832Z" />
<glyph unicode="&#x17c;" glyph-name="zdotaccent" horiz-adv-x="365" d="M-16 14L253 344H204Q138 344 101 340T47 334L43 338L113 442L386 432L383 418L110 92H157Q191 92 217 93T265 97T305 102T340 109L343 105L263 -8L-18 0L-16 14ZM498 638Q527 638 546
619T566 573Q566 546 547 527T498 508Q471 508 453 527T434 573Q434 600 452 619T498 638Z" />
<glyph unicode="&#x17d;" glyph-name="Zcaron" horiz-adv-x="562" d="M356 691L249 844L254 850L368 799L515 850L519 844L356 691ZM172 59H403L519 193H526L492 0H-9L-7 9L405 608H211L105 494H99L127 662H590L589 654L172 59Z" />
<glyph unicode="&#x17e;" glyph-name="zcaron" horiz-adv-x="365" d="M495 477L429 709L436 712L516 619L635 712L642 707L495 477ZM-16 14L253 344H204Q138 344 101 340T47 334L43 338L113 442L386 432L383 418L110 92H157Q191 92 217 93T265 97T305 102T340
109L343 105L263 -8L-18 0L-16 14Z" />
<glyph unicode="&#x192;" glyph-name="florin" horiz-adv-x="419" d="M305 534Q297 507 287 472T266 395H376L339 337H251Q232 264 212 184T170 29Q162 3 146 -32T101 -101T27 -161T-81 -194L-98 -102L-95 -101Q-75 -106 -55 -111T-24 -117Q-12 -117 -3 -112T15
-90T33 -44T55 33L127 337H47V342L83 395H141Q148 422 154 446T167 493Q176 524 193 556T237 614T304 656T397 672Q426 672 453 668T492 658L447 563H443Q420 588 400 604T366 620Q351 620 336 602T305 534Z" />
<glyph unicode="&#x1fa;" glyph-name="Aringacute" horiz-adv-x="584" d="M159 6L157 0H-39L-37 6L34 65L359 668H388L500 65L545 6L543 0H279L281 6L359 65L336 197H170L102 70L159 6ZM199 251H326L295 430L199 251ZM290 884L287 892L491 1029L532 924L290 884ZM331
781Q331 761 344 746T379 731Q399 731 413 745T427 781Q427 801 413 816T379 832Q358 832 345 817T331 781ZM288 781Q288 800 295 816T315 845T344 864T379 871Q397 871 413 864T442 845T462 817T470 781Q470 762 463 746T443 718T414 699T379 692Q361 692 345
698T316 717T296 745T288 781Z" />
<glyph unicode="&#x1fb;" glyph-name="aringacute" horiz-adv-x="450" d="M416 23V17Q381 10 332 4T224 -9L251 128Q206 66 162 27T86 -12Q72 -12 58 -4T33 20T15 58T8 110Q8 173 34 227T102 323T199 388T309 415L441 475L362 70L416 23ZM147 79Q161 79 192 109T263
187L301 375Q269 373 239 350T185 290T147 208T132 117Q132 100 136 90T147 79ZM223 677L216 682L333 905L418 833L223 677ZM224 830Q224 810 237 795T272 780Q293 780 306 794T320 830Q320 850 307 865T272 881Q251 881 238 866T224 830ZM181 830Q181 849 188
865T209 894T238 913T272 920Q290 920 307 913T336 894T356 866T364 830Q364 792 337 767T272 741Q254 741 238 747T209 766T189 794T181 830Z" />
<glyph unicode="&#x1fc;" glyph-name="AEacute" horiz-adv-x="787" d="M492 704L489 712L693 849L734 744L492 704ZM357 65L393 282H238L99 70L156 6L155 0H-38L-37 6L27 65L376 597L321 656L322 662H804L780 514H774L715 606H586L547 374H680L748 446H755L720
245H714L671 319H537L493 57H636L736 174H743L713 0H281L282 6L357 65ZM402 337L446 598L274 337H402Z" />
<glyph unicode="&#x1fd;" glyph-name="aeacute" horiz-adv-x="631" d="M350 485L343 490L460 713L545 641L350 485ZM384 -10Q365 -10 344 -3T306 21T276 64T262 127Q243 100 222 76T180 32T139 1T100 -11Q83 -11 67 -3T39 22T19 62T11 118Q11 184 36 242T105 343T204
411T320 436Q357 436 385 430T430 414Q457 428 485 436T541 444Q593 444 615 428T637 392Q637 381 628 362T594 321T522 281T400 248Q395 228 393 206T390 160Q390 117 404 95T440 73Q458 73 478 81T516 101T552 129T582 157L596 145Q550 64 496 27T384 -10ZM306
390Q273 390 243 369T190 311T154 226T140 123Q140 101 144 89T157 76Q171 76 200 104T264 176Q272 235 299 284T367 370Q357 378 342 384T306 390ZM535 386Q535 405 516 405Q506 405 492 397T464 373T435 334T410 281Q446 291 470 305T508 334T529 362T535 386Z"
/>
<glyph unicode="&#x1fe;" glyph-name="Oslashacute" horiz-adv-x="686" d="M48 269Q48 356 78 430T159 557T275 641T409 672Q489 672 555 632L623 723L665 692L596 600Q634 564 657 513T680 398Q680 310 650 235T571 106T456 21T322 -10Q238 -10 172 30L94 -74L53
-43L131 62Q92 98 70 150T48 269ZM408 614Q371 614 334 588T266 516T216 404T197 261Q197 207 209 167L498 555Q463 614 408 614ZM531 406Q531 456 520 498L232 111Q250 82 273 67T322 51Q359 51 396 77T464 150T512 262T531 406ZM307 704L304 712L508 849L549
744L307 704Z" />
<glyph unicode="&#x1ff;" glyph-name="oslashacute" horiz-adv-x="447" d="M16 -46L70 32Q45 54 31 86T16 160Q16 221 37 273T94 363T173 422T262 444Q301 444 341 425L390 497L425 473L376 402Q400 381 415 350T430 278Q430 213 409 160T353 68T275 9T189 -12Q144
-12 104 8L51 -68L16 -46ZM191 36Q212 36 233 60T271 123T299 209T310 304V306L148 72Q161 36 191 36ZM138 131L300 366Q292 382 281 389T259 396Q239 396 218 374T179 315T150 233T138 140V131ZM216 485L209 490L326 713L411 641L216 485Z" />
<glyph unicode="&#x218;" glyph-name="Scommaaccent" horiz-adv-x="438" d="M226 -121Q226 -162 194 -202T106 -266L94 -261Q114 -238 133 -209T162 -157Q137 -158 122 -145T107 -109Q107 -86 122 -71T162 -56Q189 -56 207 -73T226 -121ZM295 672Q339 672 379
666T440 654L412 498H404Q369 566 340 591T285 617Q263 617 244 600T224 552Q224 523 243 489T302 396Q331 352 350 320T380 262T396 215T401 175Q401 134 385 100T342 42T276 4T192 -10Q159 -10 131 -5T79 9T39 27T12 43Q13 58 16 82T23 133T33 190T45 247H53Q73
145 112 99T195 52Q225 52 248 76T271 137Q271 153 268 168T256 202T233 244T197 299Q167 342 148 373T119 428T104 472T100 513Q100 552 116 581T160 631T222 661T295 672Z" />
<glyph unicode="&#x219;" glyph-name="scommaaccent" horiz-adv-x="318" d="M417 -121Q417 -162 385 -202T297 -266L285 -261Q305 -238 324 -209T353 -157Q328 -158 313 -145T298 -109Q298 -86 313 -71T353 -56Q380 -56 398 -73T417 -121ZM205 445Q221 445 238
443T270 437T297 431T318 426L283 318H278Q246 369 227 384T196 400Q185 400 176 392T167 366Q167 354 172 341T190 308Q204 284 223 255T258 198Q269 177 274 156T279 117Q279 98 271 76T245 34T196 3T123 -10Q89 -10 54 -1T-1 17Q2 47 8 88T22 168H28Q43 129
56 105T82 66T105 46T126 40Q145 40 155 52T166 81Q166 93 162 104T147 133Q136 153 119 182T87 234Q70 262 64 283T58 324Q58 345 67 367T94 406T140 434T205 445Z" />
<glyph unicode="&#x21a;" glyph-name="uni021A" horiz-adv-x="607" d="M312 -121Q312 -162 280 -202T192 -266L180 -261Q200 -238 219 -209T248 -157Q223 -158 208 -145T193 -109Q193 -86 208 -71T248 -56Q275 -56 293 -73T312 -121ZM649 662L622 497H617L550
607H439L348 65L414 6L413 0H120L121 6L209 65L300 607H193L86 497H81L109 662H649Z" />
<glyph unicode="&#x21b;" glyph-name="uni021B" horiz-adv-x="340" d="M404 -121Q404 -162 372 -202T284 -266L272 -261Q292 -238 311 -209T340 -157Q315 -158 300 -145T285 -109Q285 -86 300 -71T340 -56Q367 -56 385 -73T404 -121ZM217 369L162 110Q160 101
158 93T156 81Q156 69 167 69Q186 69 216 90T290 153L303 143Q289 118 270 91T226 42T173 5T110 -10Q66 -10 47 7T27 45Q27 54 30 68T37 99L93 369H32V374L245 521L226 430H378L328 369H217Z" />
<glyph unicode="&#x237;" glyph-name="uni0237" horiz-adv-x="238" d="M145 24Q139 -6 120 -41T73 -112T7 -184T-70 -249L-77 -245Q-49 -190 -20 -120T24 30L86 340L35 382L36 388Q46 392 68 399T118 415T176 432T230 447L145 24Z" />
<glyph unicode="&#x2c6;" glyph-name="circumflex" horiz-adv-x="400" d="M297 713L363 481L355 478L276 571L156 478L150 483L297 713Z" />
<glyph unicode="&#x2c7;" glyph-name="caron" horiz-adv-x="400" d="M241 477L175 709L182 712L262 619L381 712L388 707L241 477Z" />
<glyph unicode="&#x2d8;" glyph-name="breve" horiz-adv-x="400" d="M377 639Q369 574 338 536T254 497Q225 497 207 510T179 544T167 590T170 639L178 640Q185 614 203 596T260 577Q295 577 323 595T369 640L377 639Z" />
<glyph unicode="&#x2d9;" glyph-name="dotaccent" horiz-adv-x="400" d="M263 638Q292 638 311 619T331 573Q331 546 312 527T263 508Q236 508 218 527T199 573Q199 600 217 619T263 638Z" />
<glyph unicode="&#x2da;" glyph-name="ring" horiz-adv-x="400" d="M224 579Q224 559 237 544T272 529Q293 529 306 543T320 579Q320 599 307 614T272 630Q251 630 238 615T224 579ZM181 579Q181 598 188 614T209 643T238 662T272 669Q290 669 307 662T336 643T356
615T364 579Q364 541 337 516T272 490Q254 490 238 496T209 515T189 543T181 579Z" />
<glyph unicode="&#x2db;" glyph-name="ogonek" horiz-adv-x="400" d="M118 -254Q76 -254 51 -232T26 -175Q26 -147 41 -122T79 -74T132 -33T189 0H219Q208 -12 195 -27T169 -61T149 -98T141 -137Q141 -154 151 -167T183 -180Q209 -180 230 -171T263 -154L268 -158Q263
-168 252 -184T223 -216T179 -243T118 -254Z" />
<glyph unicode="&#x2dc;" glyph-name="tilde" horiz-adv-x="400" d="M219 623Q228 623 242 619T271 610T300 600T324 596Q335 596 355 613T394 654L401 651Q393 621 383 596T360 553T336 524T312 514Q301 514 287 518T258 527T230 537T208 541Q194 541 174 524T134
483L127 485Q136 514 147 539T171 583T196 612T219 623Z" />
<glyph unicode="&#x2dd;" glyph-name="hungarumlaut" horiz-adv-x="400" d="M252 487L330 709L415 658L259 484L252 487ZM122 484L115 487L193 709L277 658L122 484Z" />
</font>
</defs>
</svg>
